<svg xmlns="http://www.w3.org/2000/svg" viewBox="0 0 217.14 249.76"><defs><style>.cls-1{fill:#85040e;}.cls-2{fill:#fff;}</style></defs><g id="Layer_2" data-name="Layer 2"><g id="Layer_1-2" data-name="Layer 1"><path class="cls-1" d="M213.64,76.46H110.09a3.5,3.5,0,0,0-3.38,2.59L95.39,121.3a3.5,3.5,0,0,0,3.38,4.41H202.32a3.5,3.5,0,0,0,3.38-2.6L217,80.86A3.49,3.49,0,0,0,213.64,76.46Z"/><path class="cls-1" d="M197,138.49H93.47a3.5,3.5,0,0,0-3.38,2.59L78.77,183.33a3.5,3.5,0,0,0,3.38,4.4H185.7a3.5,3.5,0,0,0,3.38-2.59l11.32-42.25A3.49,3.49,0,0,0,197,138.49Z"/><path class="cls-1" d="M180.4,200.52H76.85a3.5,3.5,0,0,0-3.38,2.59L62.15,245.36a3.5,3.5,0,0,0,3.38,4.4H169.08a3.5,3.5,0,0,0,3.38-2.59l11.32-42.25A3.49,3.49,0,0,0,180.4,200.52Z"/><path class="cls-1" d="M110.55,0h-42a3.5,3.5,0,0,0-3.38,2.59L.12,245.36a3.5,3.5,0,0,0,3.38,4.4h42a3.49,3.49,0,0,0,3.38-2.59L113.93,4.4A3.49,3.49,0,0,0,110.55,0Z"/><path class="cls-2" d="M127.54,116a4,4,0,0,1-4.22,3.33H112q-3.24,0-2.35-3.33l8-29.78a4,4,0,0,1,4.14-3.35h11.37q3.33,0,2.43,3.35l-2.28,8.53h-5.43l1.92-7.19h-7l-7.26,27.09h7l2.06-7.67H130Z"/><path class="cls-2" d="M151.32,116a4,4,0,0,1-4.2,3.33H135.29c-2.16,0-2.95-1.11-2.35-3.33l8-29.78a4,4,0,0,1,4.14-3.35h11.83q3.31,0,2.41,3.35Zm-5.09-1.35,7.26-27.09H146l-7.26,27.09Z"/><path class="cls-2" d="M175.1,116a4,4,0,0,1-4.2,3.33H159.07c-2.16,0-2.95-1.11-2.35-3.33l8-29.78a4,4,0,0,1,4.13-3.35h11.84q3.32,0,2.41,3.35ZM170,114.63l7.26-27.09h-7.48l-7.26,27.09Z"/><path class="cls-2" d="M193.93,119.31H179.61l9.77-36.46h5.45l-8.47,31.6h8.88Z"/><path class="cls-2" d="M110.42,181.37h-5.5L109.3,165h-7.38l-4.39,16.36H92.08l9.77-36.47h5.45l-4,15h7.38l4-15h5.5Z"/><path class="cls-2" d="M133.23,181.37h-5.41l.76-6.93h-6.82l-3,6.93h-5.39l0-.1,16.82-36.41H136Zm-4.16-11.6,1.75-16.46-7.09,16.46Z"/><path class="cls-2" d="M154.75,181.37H150l-2.59-23a12.69,12.69,0,0,1-.36,2.63l-5.44,20.32h-5.31l9.77-36.47h4.77l2.72,22.49a13.54,13.54,0,0,1,.35-2.64l5.32-19.85h5.31Z"/><path class="cls-2" d="M179.15,174.49a8.9,8.9,0,0,1-8.9,6.88H159.13l9.77-36.47H180q3.24,0,4.65,1.86c.94,1.23,1.13,2.92.55,5.06Zm-5.23-.91,5.61-20.94c.55-2-.25-3-2.37-3H173.1l-7.26,27.09h3.92A3.87,3.87,0,0,0,173.92,173.58Z"/><path class="cls-2" d="M94.3,240a4,4,0,0,1-4.22,3.33H78.71q-3.24,0-2.35-3.33l8-29.78a4,4,0,0,1,4.14-3.35H99.85q3.33,0,2.43,3.35L100,218.79H94.56l1.93-7.2h-7l-7.26,27.1h7L91.29,231h5.43Z"/><path class="cls-2" d="M117.89,240a4,4,0,0,1-4.2,3.33H101.85q-3.24,0-2.35-3.33l8-29.78a4,4,0,0,1,4.14-3.35h11.84q3.3,0,2.41,3.35Zm-5.09-1.35,7.26-27.1h-7.48l-7.26,27.1Z"/><path class="cls-2" d="M142.21,236.5a8.91,8.91,0,0,1-8.9,6.87H122.2L132,206.91h11.11q3.24,0,4.65,1.85c1,1.24,1.13,2.93.56,5.07Zm-5.23-.91,5.61-20.94q.82-3.06-2.37-3.06h-4.06l-7.26,27.1h3.92A3.88,3.88,0,0,0,137,235.59Z"/><path class="cls-2" d="M160.69,243.37H145.57l9.77-36.46h15L169,211.73H159.5l-2.85,10.65h8.2l-1.27,4.73h-8.2l-3.06,11.44H162Z"/></g></g></svg>