<svg width="50" height="50" viewBox="0 0 50 50" fill="none" xmlns="http://www.w3.org/2000/svg">
<circle cx="25" cy="25" r="25" fill="#A692FF"/>
<g clip-path="url(#clip0)">
<path d="M33.982 21.292C33.9398 20.3356 33.7852 19.6781 33.5636 19.1084C33.3351 18.5036 32.9834 17.9621 32.5227 17.512C32.0726 17.0549 31.5276 16.6997 30.9298 16.4747C30.3568 16.2531 29.7027 16.0985 28.7463 16.0563C27.7827 16.0106 27.4768 16 25.033 16C22.5892 16 22.2833 16.0106 21.3233 16.0527C20.3669 16.0949 19.7094 16.2497 19.1398 16.4711C18.5348 16.6997 17.9934 17.0513 17.5433 17.512C17.0861 17.9621 16.7311 18.5072 16.506 19.1049C16.2844 19.6781 16.1297 20.3321 16.0876 21.2885C16.0418 22.252 16.0312 22.5579 16.0312 25.0018C16.0312 27.4456 16.0418 27.7515 16.084 28.7115C16.1262 29.6679 16.281 30.3254 16.5025 30.8952C16.7311 31.4999 17.0861 32.0414 17.5433 32.4915C17.9934 32.9486 18.5384 33.3038 19.1362 33.5288C19.7094 33.7504 20.3633 33.905 21.3199 33.9472C22.2797 33.9895 22.5857 33.9999 25.0296 33.9999C27.4734 33.9999 27.7793 33.9895 28.7393 33.9472C29.6957 33.905 30.3532 33.7504 30.9228 33.5288C32.1325 33.0611 33.0889 32.1047 33.5566 30.8952C33.778 30.322 33.9328 29.6679 33.975 28.7115C34.0172 27.7515 34.0278 27.4456 34.0278 25.0018C34.0278 22.5579 34.0242 22.252 33.982 21.292ZM32.3611 28.6411C32.3223 29.5202 32.1747 29.9949 32.0516 30.3114C31.7492 31.0956 31.1268 31.7179 30.3426 32.0204C30.0262 32.1434 29.548 32.2911 28.6724 32.3297C27.723 32.372 27.4382 32.3824 25.0366 32.3824C22.6349 32.3824 22.3466 32.372 21.4006 32.3297C20.5216 32.2911 20.0468 32.1434 19.7304 32.0204C19.3402 31.8761 18.985 31.6476 18.6966 31.3487C18.3978 31.0568 18.1692 30.7052 18.025 30.315C17.9019 29.9985 17.7542 29.5202 17.7156 28.6447C17.6733 27.6953 17.6629 27.4104 17.6629 25.0088C17.6629 22.6071 17.6733 22.3188 17.7156 21.373C17.7542 20.4939 17.9019 20.0192 18.025 19.7027C18.1692 19.3123 18.3978 18.9573 18.7002 18.6688C18.992 18.3699 19.3436 18.1414 19.734 17.9973C20.0504 17.8742 20.5287 17.7266 21.4042 17.6878C22.3536 17.6457 22.6385 17.6351 25.04 17.6351C27.4453 17.6351 27.73 17.6457 28.676 17.6878C29.555 17.7266 30.0297 17.8742 30.3462 17.9973C30.7364 18.1414 31.0916 18.3699 31.3799 18.6688C31.6788 18.9607 31.9074 19.3123 32.0516 19.7027C32.1747 20.0192 32.3223 20.4973 32.3611 21.373C32.4032 22.3224 32.4138 22.6071 32.4138 25.0088C32.4138 27.4104 32.4032 27.6917 32.3611 28.6411Z" fill="white"/>
<path d="M25.0341 20.3779C22.4813 20.3779 20.4102 22.449 20.4102 25.0019C20.4102 27.5548 22.4813 29.6258 25.0341 29.6258C27.587 29.6258 29.6581 27.5548 29.6581 25.0019C29.6581 22.449 27.587 20.3779 25.0341 20.3779ZM25.0341 28.0013C23.378 28.0013 22.0347 26.6581 22.0347 25.0019C22.0347 23.3456 23.378 22.0024 25.0341 22.0024C26.6903 22.0024 28.0335 23.3456 28.0335 25.0019C28.0335 26.6581 26.6903 28.0013 25.0341 28.0013Z" fill="white"/>
<path d="M30.9189 20.1952C30.9189 20.7913 30.4355 21.2747 29.8392 21.2747C29.2431 21.2747 28.7598 20.7913 28.7598 20.1952C28.7598 19.5989 29.2431 19.1157 29.8392 19.1157C30.4355 19.1157 30.9189 19.5989 30.9189 20.1952Z" fill="white"/>
</g>
<defs>
<clipPath id="clip0">
<rect width="18" height="18" fill="white" transform="translate(16 16)"/>
</clipPath>
</defs>
</svg>
