<svg width="50" height="50" viewBox="0 0 50 50" fill="none" xmlns="http://www.w3.org/2000/svg">
<circle cx="25" cy="25" r="25" fill="#69B6FF"/>
<path d="M35 19.4189C34.3306 19.7125 33.6174 19.9071 32.8737 20.0016C33.6388 19.5449 34.2226 18.8271 34.4971 17.962C33.7839 18.3872 32.9964 18.6876 32.1571 18.8553C31.4799 18.1341 30.5146 17.6875 29.4616 17.6875C27.4186 17.6875 25.7739 19.3458 25.7739 21.3786C25.7739 21.6711 25.7986 21.9524 25.8594 22.2201C22.7915 22.0705 20.0769 20.6001 18.2533 18.3603C17.9349 18.9126 17.7481 19.5449 17.7481 20.2255C17.7481 21.5035 18.4062 22.6364 19.3872 23.2922C18.7944 23.281 18.2127 23.1089 17.72 22.8377C17.72 22.849 17.72 22.8636 17.72 22.8782C17.72 24.6715 18.9991 26.161 20.6765 26.5041C20.3761 26.5863 20.0487 26.6256 19.709 26.6256C19.4727 26.6256 19.2342 26.6121 19.0104 26.5626C19.4885 28.024 20.8453 29.0984 22.4585 29.1332C21.203 30.1154 19.6089 30.7071 17.8831 30.7071C17.5805 30.7071 17.2902 30.6936 17 30.6565C18.6346 31.7106 20.5719 32.3125 22.661 32.3125C29.4515 32.3125 33.164 26.6875 33.164 21.8117C33.164 21.6486 33.1584 21.4911 33.1505 21.3348C33.8829 20.815 34.4982 20.1659 35 19.4189Z" fill="white"/>
</svg>
