<svg width="125" height="36" viewBox="0 0 125 36" fill="none" xmlns="http://www.w3.org/2000/svg">
<path d="M39.887 22.6987C37.0709 19.8516 37.0709 15.2864 39.887 12.4393C44.4024 7.92319 41.1979 0.118164 34.8375 0.118164L33.2353 0.118164L8.81325 0.118164L7.21102 0.118164C0.802132 0.118164 -2.35378 7.92319 2.11285 12.4884C4.92902 15.3355 4.92902 19.9007 2.11285 22.7478C-2.40232 27.313 0.802126 35.1182 7.16249 35.1182L8.76471 35.1182L33.1867 35.1182L34.789 35.1182C41.1979 35.0691 44.4024 27.2639 39.887 22.6987Z" fill="#A692FF"/>
<rect x="12" y="15.3965" width="4" height="10" rx="2" transform="rotate(-45 12 15.3965)" fill="white"/>
<rect x="20" y="15.1533" width="4" height="10" rx="2" transform="rotate(-45 20 15.1533)" fill="white"/>
<path d="M62.974 26.6182V20.1442L56.864 8.41816H60.634L64.664 16.8162L68.668 8.41816H72.386L66.302 20.1442V26.6182H62.974ZM77.7975 26.9302C76.5495 26.9302 75.4228 26.6442 74.4175 26.0722C73.4295 25.5002 72.6408 24.7115 72.0515 23.7062C71.4795 22.6835 71.1935 21.5048 71.1935 20.1702C71.1935 18.8355 71.4881 17.6655 72.0775 16.6602C72.6668 15.6375 73.4555 14.8402 74.4435 14.2682C75.4488 13.6962 76.5755 13.4102 77.8235 13.4102C79.0541 13.4102 80.1635 13.6962 81.1515 14.2682C82.1568 14.8402 82.9455 15.6375 83.5175 16.6602C84.1068 17.6655 84.4015 18.8355 84.4015 20.1702C84.4015 21.5048 84.1068 22.6835 83.5175 23.7062C82.9455 24.7115 82.1568 25.5002 81.1515 26.0722C80.1461 26.6442 79.0281 26.9302 77.7975 26.9302ZM77.7975 24.0442C78.6641 24.0442 79.4181 23.7235 80.0595 23.0822C80.7008 22.4235 81.0215 21.4528 81.0215 20.1702C81.0215 18.8875 80.7008 17.9255 80.0595 17.2842C79.4181 16.6255 78.6728 16.2962 77.8235 16.2962C76.9395 16.2962 76.1768 16.6255 75.5355 17.2842C74.9115 17.9255 74.5995 18.8875 74.5995 20.1702C74.5995 21.4528 74.9115 22.4235 75.5355 23.0822C76.1768 23.7235 76.9308 24.0442 77.7975 24.0442Z" fill="black"/>
<path d="M86.288 26.6182V16.5042H84.52V13.7222H86.288V12.2142C86.288 10.6542 86.678 9.54483 87.458 8.88616C88.2553 8.2275 89.33 7.89816 90.682 7.89816H92.112V10.7322H91.202C90.63 10.7322 90.2227 10.8448 89.98 11.0702C89.7373 11.2955 89.616 11.6768 89.616 12.2142V13.7222H92.398V16.5042H89.616V26.6182H86.288ZM100.26 26.6182C98.9077 26.6182 97.8244 26.2888 97.0097 25.6302C96.1951 24.9715 95.7877 23.8015 95.7877 22.1202V16.5042H93.5777V13.7222H95.7877L96.1777 10.2642H99.1157V13.7222H102.6V16.5042H99.1157V22.1462C99.1157 22.7702 99.2457 23.2035 99.5057 23.4462C99.7831 23.6715 100.251 23.7842 100.91 23.7842H102.522V26.6182H100.26ZM110.873 26.9302C109.573 26.9302 108.42 26.6528 107.415 26.0982C106.41 25.5435 105.621 24.7635 105.049 23.7582C104.477 22.7528 104.191 21.5915 104.191 20.2742C104.191 18.9395 104.468 17.7522 105.023 16.7122C105.595 15.6722 106.375 14.8662 107.363 14.2942C108.368 13.7048 109.547 13.4102 110.899 13.4102C112.164 13.4102 113.282 13.6875 114.253 14.2422C115.224 14.7968 115.978 15.5595 116.515 16.5302C117.07 17.4835 117.347 18.5495 117.347 19.7282C117.347 19.9188 117.338 20.1182 117.321 20.3262C117.321 20.5342 117.312 20.7508 117.295 20.9762H107.493C107.562 21.9815 107.909 22.7702 108.533 23.3422C109.174 23.9142 109.946 24.2002 110.847 24.2002C111.523 24.2002 112.086 24.0528 112.537 23.7582C113.005 23.4462 113.352 23.0475 113.577 22.5622H116.957C116.714 23.3768 116.307 24.1222 115.735 24.7982C115.18 25.4568 114.487 25.9768 113.655 26.3582C112.84 26.7395 111.913 26.9302 110.873 26.9302ZM110.899 16.1142C110.084 16.1142 109.365 16.3482 108.741 16.8162C108.117 17.2668 107.718 17.9602 107.545 18.8962H113.967C113.915 18.0468 113.603 17.3708 113.031 16.8682C112.459 16.3655 111.748 16.1142 110.899 16.1142ZM121.056 26.8002C120.449 26.8002 119.947 26.6095 119.548 26.2282C119.167 25.8468 118.976 25.3875 118.976 24.8502C118.976 24.2955 119.167 23.8275 119.548 23.4462C119.947 23.0648 120.449 22.8742 121.056 22.8742C121.663 22.8742 122.157 23.0648 122.538 23.4462C122.937 23.8275 123.136 24.2955 123.136 24.8502C123.136 25.3875 122.937 25.8468 122.538 26.2282C122.157 26.6095 121.663 26.8002 121.056 26.8002Z" fill="black"/>
<rect x="84.2891" y="13.6182" width="2" height="4" fill="#EFF1F5"/>
</svg>
