<svg width="125" height="36" viewBox="0 0 125 36" fill="none" xmlns="http://www.w3.org/2000/svg">
<path d="M39.887 22.6216C37.0709 19.7745 37.0709 15.2093 39.887 12.3621C44.4024 7.84604 41.1979 0.0410153 34.8375 0.0410153L33.2353 0.0410153L8.81325 0.0410153L7.21102 0.0410153C0.802132 0.0410153 -2.35378 7.84604 2.11285 12.4112C4.92902 15.2583 4.92902 19.8235 2.11285 22.6707C-2.40232 27.2359 0.802126 35.041 7.16249 35.041L8.76471 35.041L33.1867 35.041L34.789 35.041C41.1979 34.9919 44.4024 27.1868 39.887 22.6216Z" fill="#A692FF"/>
<rect x="12" y="15.3193" width="4" height="10" rx="2" transform="rotate(-45 12 15.3193)" fill="white"/>
<rect x="20" y="15.0767" width="4" height="10" rx="2" transform="rotate(-45 20 15.0767)" fill="white"/>
<path d="M62.974 26.541V20.067L56.864 8.34101H60.634L64.664 16.739L68.668 8.34101H72.386L66.302 20.067V26.541H62.974ZM77.7975 26.853C76.5495 26.853 75.4228 26.567 74.4175 25.995C73.4295 25.423 72.6408 24.6343 72.0515 23.629C71.4795 22.6063 71.1935 21.4277 71.1935 20.093C71.1935 18.7583 71.4881 17.5883 72.0775 16.583C72.6668 15.5603 73.4555 14.763 74.4435 14.191C75.4488 13.619 76.5755 13.333 77.8235 13.333C79.0541 13.333 80.1635 13.619 81.1515 14.191C82.1568 14.763 82.9455 15.5603 83.5175 16.583C84.1068 17.5883 84.4015 18.7583 84.4015 20.093C84.4015 21.4277 84.1068 22.6063 83.5175 23.629C82.9455 24.6343 82.1568 25.423 81.1515 25.995C80.1461 26.567 79.0281 26.853 77.7975 26.853ZM77.7975 23.967C78.6641 23.967 79.4181 23.6463 80.0595 23.005C80.7008 22.3463 81.0215 21.3757 81.0215 20.093C81.0215 18.8103 80.7008 17.8483 80.0595 17.207C79.4181 16.5483 78.6728 16.219 77.8235 16.219C76.9395 16.219 76.1768 16.5483 75.5355 17.207C74.9115 17.8483 74.5995 18.8103 74.5995 20.093C74.5995 21.3757 74.9115 22.3463 75.5355 23.005C76.1768 23.6463 76.9308 23.967 77.7975 23.967Z" fill="white"/>
<path d="M86.288 26.541V16.427H84.52V13.645H86.288V12.137C86.288 10.577 86.678 9.46768 87.458 8.80901C88.2553 8.15035 89.33 7.82101 90.682 7.82101H92.112V10.655H91.202C90.63 10.655 90.2227 10.7677 89.98 10.993C89.7373 11.2183 89.616 11.5997 89.616 12.137V13.645H92.398V16.427H89.616V26.541H86.288ZM100.26 26.541C98.9077 26.541 97.8244 26.2117 97.0097 25.553C96.1951 24.8943 95.7877 23.7243 95.7877 22.043V16.427H93.5777V13.645H95.7877L96.1777 10.187H99.1157V13.645H102.6V16.427H99.1157V22.069C99.1157 22.693 99.2457 23.1263 99.5057 23.369C99.7831 23.5943 100.251 23.707 100.91 23.707H102.522V26.541H100.26ZM110.873 26.853C109.573 26.853 108.42 26.5757 107.415 26.021C106.41 25.4663 105.621 24.6863 105.049 23.681C104.477 22.6757 104.191 21.5143 104.191 20.197C104.191 18.8623 104.468 17.675 105.023 16.635C105.595 15.595 106.375 14.789 107.363 14.217C108.368 13.6277 109.547 13.333 110.899 13.333C112.164 13.333 113.282 13.6103 114.253 14.165C115.224 14.7197 115.978 15.4823 116.515 16.453C117.07 17.4063 117.347 18.4723 117.347 19.651C117.347 19.8417 117.338 20.041 117.321 20.249C117.321 20.457 117.312 20.6737 117.295 20.899H107.493C107.562 21.9043 107.909 22.693 108.533 23.265C109.174 23.837 109.946 24.123 110.847 24.123C111.523 24.123 112.086 23.9757 112.537 23.681C113.005 23.369 113.352 22.9703 113.577 22.485H116.957C116.714 23.2997 116.307 24.045 115.735 24.721C115.18 25.3797 114.487 25.8997 113.655 26.281C112.84 26.6623 111.913 26.853 110.873 26.853ZM110.899 16.037C110.084 16.037 109.365 16.271 108.741 16.739C108.117 17.1897 107.718 17.883 107.545 18.819H113.967C113.915 17.9697 113.603 17.2937 113.031 16.791C112.459 16.2883 111.748 16.037 110.899 16.037ZM121.056 26.723C120.449 26.723 119.947 26.5323 119.548 26.151C119.167 25.7697 118.976 25.3103 118.976 24.773C118.976 24.2183 119.167 23.7503 119.548 23.369C119.947 22.9877 120.449 22.797 121.056 22.797C121.663 22.797 122.157 22.9877 122.538 23.369C122.937 23.7503 123.136 24.2183 123.136 24.773C123.136 25.3103 122.937 25.7697 122.538 26.151C122.157 26.5323 121.663 26.723 121.056 26.723Z" fill="white"/>
<rect x="84.2891" y="13.541" width="2" height="4" fill="#5475E5"/>
</svg>
