<svg width="508" height="149" viewBox="0 0 508 149" fill="none" xmlns="http://www.w3.org/2000/svg">
<path d="M320.5 71.2793C320.5 104.134 296.74 130.279 268 130.279C239.26 130.279 215.5 104.134 215.5 71.2793C215.5 38.4246 239.26 12.2793 268 12.2793C296.74 12.2793 320.5 38.4246 320.5 71.2793Z" stroke="#EFF1F5" stroke-width="5"/>
<circle cx="276.5" cy="62.2793" r="59" stroke="#F59460" stroke-width="5"/>
<path d="M168.422 106.779V90.3993H124.952V77.5473L166.28 18.5793H184.55V76.4133H196.142V90.3993H184.55V106.779H168.422ZM142.214 76.4133H169.43V36.3453L142.214 76.4133ZM356.635 106.779V90.3993H313.165V77.5473L354.493 18.5793H372.763V76.4133H384.355V90.3993H372.763V106.779H356.635ZM330.427 76.4133H357.643V36.3453L330.427 76.4133Z" fill="white"/>
</svg>
