<svg width="946" height="370" viewBox="0 0 946 370" fill="none" xmlns="http://www.w3.org/2000/svg">
<path d="M510.5 174.5C510.5 257.611 450.253 324.5 376.5 324.5C302.747 324.5 242.5 257.611 242.5 174.5C242.5 91.3895 302.747 24.5 376.5 24.5C450.253 24.5 510.5 91.3895 510.5 174.5Z" stroke="#EFF1F5" stroke-width="5"/>
<circle cx="397.5" cy="152.5" r="150" stroke="#F59460" stroke-width="5"/>
<path d="M155.2 308V256H17.2V215.2L148.4 28H206.4V211.6H243.2V256H206.4V308H155.2ZM72 211.6H158.4V84.4L72 211.6ZM390.25 312.8C364.383 312.8 342.25 306.8 323.85 294.8C305.45 282.533 291.183 265.6 281.05 244C271.183 222.133 266.25 196.8 266.25 168C266.25 139.467 271.183 114.267 281.05 92.4C291.183 70.5333 305.45 53.6 323.85 41.6C342.25 29.3333 364.383 23.2 390.25 23.2C416.117 23.2 438.25 29.3333 456.65 41.6C475.05 53.6 489.183 70.5333 499.05 92.4C509.183 114.267 514.25 139.467 514.25 168C514.25 196.8 509.183 222.133 499.05 244C489.183 265.6 475.05 282.533 456.65 294.8C438.25 306.8 416.117 312.8 390.25 312.8ZM390.25 266.8C411.317 266.8 428.517 258 441.85 240.4C455.183 222.8 461.85 198.667 461.85 168C461.85 137.333 455.183 113.2 441.85 95.6C428.517 78 411.317 69.2 390.25 69.2C368.917 69.2 351.583 78 338.25 95.6C325.183 113.2 318.65 137.333 318.65 168C318.65 198.667 325.183 222.8 338.25 240.4C351.583 258 368.917 266.8 390.25 266.8ZM679.434 308V256H541.434V215.2L672.634 28H730.634V211.6H767.434V256H730.634V308H679.434ZM596.234 211.6H682.634V84.4L596.234 211.6Z" fill="white"/>
</svg>
