<svg width="508" height="160" viewBox="0 0 508 160" fill="none" xmlns="http://www.w3.org/2000/svg">
<circle cx="276.5" cy="73.2793" r="59" stroke="#F59460" stroke-width="5"/>
<path d="M320.5 62.2793C320.5 95.134 296.74 121.279 268 121.279C239.26 121.279 215.5 95.134 215.5 62.2793C215.5 29.4246 239.26 3.2793 268 3.2793C296.74 3.2793 320.5 29.4246 320.5 62.2793Z" stroke="#5C79DC" stroke-width="5"/>
<path d="M168.422 117.779V101.399H124.952V88.5473L166.28 29.5793H184.55V87.4133H196.142V101.399H184.55V117.779H168.422ZM142.214 87.4133H169.43V47.3453L142.214 87.4133ZM356.635 117.779V101.399H313.165V88.5473L354.493 29.5793H372.763V87.4133H384.355V101.399H372.763V117.779H356.635ZM330.427 87.4133H357.643V47.3453L330.427 87.4133Z" fill="#151515"/>
</svg>
