<svg width="36" height="36" viewBox="0 0 36 36" fill="none" xmlns="http://www.w3.org/2000/svg">
<circle cx="18" cy="18" r="18" fill="#3054CE"/>
<path d="M13.8024 24V11.4H18.1404C19.1364 11.4 19.9524 11.568 20.5884 11.904C21.2364 12.24 21.7164 12.696 22.0284 13.272C22.3404 13.836 22.4964 14.466 22.4964 15.162C22.4964 15.942 22.2864 16.65 21.8664 17.286C21.4584 17.922 20.8164 18.378 19.9404 18.654L22.6224 24H20.4084L17.9604 18.924H15.7104V24H13.8024ZM15.7104 17.484H18.0324C18.8964 17.484 19.5264 17.274 19.9224 16.854C20.3304 16.434 20.5344 15.888 20.5344 15.216C20.5344 14.544 20.3364 14.01 19.9404 13.614C19.5444 13.206 18.9024 13.002 18.0144 13.002H15.7104V17.484Z" fill="white"/>
</svg>
