<svg width="1920" height="590" viewBox="0 0 1920 590" fill="none" xmlns="http://www.w3.org/2000/svg">
<path d="M-140.124 233.321C-130.545 196.01 -111.571 159.958 -83.4575 131.046C-48.9146 95.5236 3.46646 75.2985 53.1366 82.486C109.699 90.6709 151.979 136.6 170.695 184.587" stroke="#F59460" stroke-width="5" stroke-linecap="round" stroke-linejoin="round"/>
<path d="M1779.88 233.321C1789.46 196.01 1808.43 159.958 1836.54 131.046C1871.09 95.5236 1923.47 75.2985 1973.14 82.486C2029.7 90.6709 2071.98 136.6 2090.7 184.587" stroke="#F59460" stroke-width="5" stroke-linecap="round" stroke-linejoin="round"/>
<path d="M690.588 -91.8656C692.724 -53.4046 685.525 -13.3054 667.455 22.7465C645.253 67.0427 601.426 102.143 551.905 110.292C495.512 119.571 441.335 88.5551 409 48.4614" stroke="white" stroke-width="5" stroke-linecap="round" stroke-linejoin="round"/>
<path d="M1866.81 346.005C1787.28 329.168 1709.55 292.409 1646.05 235.733C1568.03 166.096 1520.67 57.4672 1531.35 -47.9154C1543.51 -167.921 1636.55 -261.21 1736.05 -305" stroke="#5475E5" stroke-width="5" stroke-linecap="round" stroke-linejoin="round"/>
<path d="M787.24 976.094C697.064 957.004 608.935 915.328 536.945 851.07C448.492 772.117 394.789 648.957 406.899 529.476C420.688 393.417 526.172 287.647 638.982 238" stroke="#A692FF" stroke-width="5" stroke-linecap="round" stroke-linejoin="round"/>
</svg>
