<svg width="1157" height="464" viewBox="0 0 1157 464" fill="none" xmlns="http://www.w3.org/2000/svg">
<path d="M-140.124 233.321C-130.545 196.01 -111.571 159.958 -83.4575 131.046C-48.9146 95.5236 3.46646 75.2985 53.1366 82.486C109.699 90.6709 151.979 136.6 170.695 184.587" stroke="#F59460" stroke-width="5" stroke-linecap="round" stroke-linejoin="round"/>
<path d="M757.588 -91.8656C759.724 -53.4046 752.525 -13.3054 734.455 22.7465C712.253 67.0427 668.426 102.143 618.905 110.292C562.512 119.571 508.335 88.5551 476 48.4614" stroke="white" stroke-width="5" stroke-linecap="round" stroke-linejoin="round"/>
<path d="M1110.86 682.562C1073.18 674.584 1036.35 657.168 1006.26 630.314C969.295 597.319 946.852 545.849 951.913 495.917C957.675 439.057 1001.76 394.855 1048.9 374.107" stroke="#A692FF" stroke-width="5" stroke-linecap="round" stroke-linejoin="round"/>
</svg>
