<svg width="1624" height="464" viewBox="0 0 1624 464" fill="none" xmlns="http://www.w3.org/2000/svg">
<path d="M-140.124 233.321C-130.545 196.01 -111.571 159.958 -83.4575 131.046C-48.9146 95.5236 3.46646 75.2985 53.1366 82.486C109.699 90.6709 151.979 136.6 170.695 184.587" stroke="white" stroke-width="5" stroke-linecap="round" stroke-linejoin="round"/>
<path d="M1804.81 883.005C1725.28 866.169 1647.55 829.41 1584.05 772.734C1506.03 703.097 1458.67 594.468 1469.35 489.085C1481.51 369.08 1574.55 275.79 1674.05 232" stroke="white" stroke-width="5" stroke-linecap="round" stroke-linejoin="round"/>
<path d="M658.24 573.094C568.064 554.005 479.935 512.329 407.945 448.071C319.492 369.118 265.789 245.957 277.899 126.477C291.688 -9.5823 397.172 -115.352 509.982 -165" stroke="white" stroke-width="5" stroke-linecap="round" stroke-linejoin="round"/>
<path d="M1279.82 107.357C1222.72 95.2701 1166.92 68.8809 1121.33 28.193C1065.33 -21.7994 1031.32 -99.7843 1038.99 -175.439C1047.72 -261.591 1114.51 -328.563 1185.94 -360" stroke="white" stroke-width="5" stroke-linecap="round" stroke-linejoin="round"/>
</svg>
