<svg width="1920" height="209" viewBox="0 0 1920 209" fill="none" xmlns="http://www.w3.org/2000/svg">
<path d="M531.876 124.608C541.455 87.2974 560.429 51.2448 588.542 22.3335C623.085 -13.1893 675.466 -33.4144 725.137 -26.2269C781.699 -18.042 823.979 27.8873 842.695 75.8744" stroke="#F59460" stroke-width="5" stroke-linecap="round" stroke-linejoin="round"/>
<path d="M-134.124 124.608C-124.545 87.2974 -105.571 51.2448 -77.4575 22.3335C-42.9146 -13.1893 9.46646 -33.4144 59.1366 -26.2269C115.699 -18.042 157.979 27.8873 176.695 75.8744" stroke="#F59460" stroke-width="5" stroke-linecap="round" stroke-linejoin="round"/>
<path d="M1773.88 75.6076C1783.46 38.2974 1802.43 2.24476 1830.54 -26.6665C1865.09 -62.1893 1917.47 -82.4144 1967.14 -75.2269C2023.7 -67.042 2065.98 -21.1127 2084.7 26.8744" stroke="#F59460" stroke-width="5" stroke-linecap="round" stroke-linejoin="round"/>
<path d="M995.59 -55.8656C997.726 -17.4046 990.527 22.6946 972.457 58.7465C950.255 103.043 906.428 138.143 856.907 146.292C800.514 155.571 746.337 124.555 714.002 84.4614" stroke="white" stroke-width="5" stroke-linecap="round" stroke-linejoin="round"/>
</svg>
