<svg width="889" height="925" viewBox="0 0 889 925" fill="none" xmlns="http://www.w3.org/2000/svg">
<path d="M625.534 396.452C631.392 373.633 642.996 351.583 660.191 333.901C681.317 312.176 713.353 299.806 743.731 304.202C778.324 309.208 804.182 337.298 815.629 366.647" stroke="#F59460" stroke-width="5" stroke-linecap="round" stroke-linejoin="round"/>
<path d="M224.155 197.57C225.461 221.092 221.058 245.617 210.007 267.666C196.428 294.757 169.624 316.224 139.337 321.208C104.847 326.883 71.7129 307.914 51.9369 283.393" stroke="#F59460" stroke-width="5" stroke-linecap="round" stroke-linejoin="round"/>
<path d="M834.049 847.325C785.405 837.027 737.865 814.546 699.032 779.883C651.317 737.294 622.348 670.857 628.88 606.405C636.319 533.01 693.22 475.955 754.073 449.173" stroke="white" stroke-width="5" stroke-linecap="round" stroke-linejoin="round"/>
<path d="M612.003 946.674C496.711 922.268 384.035 868.984 291.994 786.828C178.905 685.885 110.244 528.42 125.726 375.661C143.356 201.706 278.22 66.4761 422.451 2.99988" stroke="#A692FF" stroke-width="5" stroke-linecap="round" stroke-linejoin="round"/>
</svg>
