<svg width="1920" height="179" viewBox="0 0 1920 179" fill="none" xmlns="http://www.w3.org/2000/svg">
<path d="M481.876 94.6076C491.455 57.2974 510.429 21.2448 538.542 -7.66655C573.085 -43.1893 625.466 -63.4144 675.137 -56.2269C731.699 -48.042 773.979 -2.11267 792.695 45.8744" stroke="#F59460" stroke-width="5" stroke-linecap="round" stroke-linejoin="round"/>
<path d="M-184.124 94.6076C-174.545 57.2974 -155.571 21.2448 -127.458 -7.66655C-92.9146 -43.1893 -40.5335 -63.4144 9.13664 -56.2269C65.6989 -48.042 107.979 -2.11267 126.695 45.8744" stroke="#F59460" stroke-width="5" stroke-linecap="round" stroke-linejoin="round"/>
<path d="M1723.88 45.6076C1733.46 8.29738 1752.43 -27.7552 1780.54 -56.6665C1815.09 -92.1893 1867.47 -112.414 1917.14 -105.227C1973.7 -97.042 2015.98 -51.1127 2034.7 -3.12564" stroke="#F59460" stroke-width="5" stroke-linecap="round" stroke-linejoin="round"/>
<path d="M945.588 -85.8656C947.724 -47.4046 940.525 -7.30537 922.455 28.7465C900.253 73.0427 856.426 108.143 806.905 116.292C750.512 125.571 696.335 94.5551 664 54.4614" stroke="white" stroke-width="5" stroke-linecap="round" stroke-linejoin="round"/>
</svg>
