<svg width="1093" height="752" viewBox="0 0 1093 752" fill="none" xmlns="http://www.w3.org/2000/svg">
<path d="M33.8764 250.321C43.4554 213.011 62.4287 176.959 90.5425 148.047C125.085 112.525 177.466 92.2994 227.137 99.487C283.699 107.672 325.979 153.601 344.695 201.588" stroke="#F59460" stroke-width="5" stroke-linecap="round" stroke-linejoin="round"/>
<path d="M870.24 1151.09C780.064 1132.01 691.935 1090.33 619.945 1026.07C531.492 947.118 477.789 823.957 489.899 704.477C503.688 568.418 609.172 462.648 721.982 413.001" stroke="#A692FF" stroke-width="5" stroke-linecap="round" stroke-linejoin="round"/>
<path d="M982.876 650.321C992.455 613.011 1011.43 576.959 1039.54 548.047C1074.09 512.525 1126.47 492.299 1176.14 499.487C1232.7 507.672 1274.98 553.601 1293.7 601.588" stroke="#F59460" stroke-width="5" stroke-linecap="round" stroke-linejoin="round"/>
<path d="M803.588 -74.8646C805.724 -36.4036 798.525 3.6956 780.455 39.7475C758.253 84.0437 714.426 119.144 664.905 127.293C608.512 136.572 554.335 105.556 522 65.4623" stroke="white" stroke-width="5" stroke-linecap="round" stroke-linejoin="round"/>
</svg>
