<svg width="1502" height="935" viewBox="0 0 1502 935" fill="none" xmlns="http://www.w3.org/2000/svg">
<path d="M1396.24 1354.09C1306.06 1335 1217.94 1293.33 1145.95 1229.07C1057.49 1150.12 1003.79 1026.96 1015.9 907.477C1029.69 771.418 1135.17 665.648 1247.98 616" stroke="#A692FF" stroke-width="5" stroke-linecap="round" stroke-linejoin="round"/>
<path d="M491.876 704.608C501.455 667.298 520.429 631.245 548.542 602.334C583.085 566.811 635.466 546.586 685.137 553.774C741.699 561.959 783.979 607.888 802.695 655.875" stroke="#F59460" stroke-width="5" stroke-linecap="round" stroke-linejoin="round"/>
<path d="M285.588 -110.865C287.724 -72.4041 280.525 -32.3049 262.455 3.74698C240.253 48.0432 196.426 83.1434 146.905 91.2921C90.5116 100.572 36.3351 69.5556 4.00005 29.4619" stroke="white" stroke-width="5" stroke-linecap="round" stroke-linejoin="round"/>
</svg>
