<svg width="1920" height="640" viewBox="0 0 1920 640" fill="none" xmlns="http://www.w3.org/2000/svg">
<path d="M-140.124 233.321C-130.545 196.01 -111.571 159.958 -83.4575 131.046C-48.9146 95.5236 3.46646 75.2985 53.1366 82.486C109.699 90.6709 151.979 136.6 170.695 184.587" stroke="#F59460" stroke-width="5" stroke-linecap="round" stroke-linejoin="round"/>
<path d="M1779.88 233.321C1789.46 196.01 1808.43 159.958 1836.54 131.046C1871.09 95.5236 1923.47 75.2985 1973.14 82.486C2029.7 90.6709 2071.98 136.6 2090.7 184.587" stroke="#F59460" stroke-width="5" stroke-linecap="round" stroke-linejoin="round"/>
<path d="M1123.59 -91.8656C1125.72 -53.4046 1118.52 -13.3054 1100.46 22.7465C1078.25 67.0427 1034.43 102.143 984.905 110.292C928.512 119.571 874.335 88.5551 842 48.4614" stroke="#5C79DC" stroke-width="5" stroke-linecap="round" stroke-linejoin="round"/>
<path d="M2120.81 970.529C2041.28 953.693 1963.55 916.934 1900.05 860.258C1822.03 790.621 1774.67 681.992 1785.35 576.609C1797.51 456.604 1890.55 363.314 1990.05 319.524" stroke="#A692FF" stroke-width="5" stroke-linecap="round" stroke-linejoin="round"/>
<path d="M1757.75 1132.97C1569.24 1093.07 1385.01 1005.94 1234.52 871.614C1049.61 706.564 937.342 449.099 962.656 199.327C991.483 -85.1022 1211.99 -306.212 1447.82 -410" stroke="#A692FF" stroke-width="5" stroke-linecap="round" stroke-linejoin="round"/>
</svg>
