<svg width="1920" height="822" viewBox="0 0 1920 822" fill="none" xmlns="http://www.w3.org/2000/svg">
<path d="M-140.124 233.321C-130.545 196.01 -111.571 159.958 -83.4575 131.046C-48.9146 95.5236 3.46646 75.2985 53.1366 82.486C109.699 90.6709 151.979 136.6 170.695 184.587" stroke="#F59460" stroke-width="5" stroke-linecap="round" stroke-linejoin="round"/>
<path d="M1779.88 233.321C1789.46 196.01 1808.43 159.958 1836.54 131.046C1871.09 95.5236 1923.47 75.2985 1973.14 82.486C2029.7 90.6709 2071.98 136.6 2090.7 184.587" stroke="#F59460" stroke-width="5" stroke-linecap="round" stroke-linejoin="round"/>
<path d="M1123.59 -91.8656C1125.72 -53.4046 1118.52 -13.3054 1100.46 22.7465C1078.25 67.0427 1034.43 102.143 984.905 110.292C928.512 119.571 874.335 88.5551 842 48.4614" stroke="#5C79DC" stroke-width="5" stroke-linecap="round" stroke-linejoin="round"/>
<path d="M2120.81 970.529C2041.28 953.693 1963.55 916.934 1900.05 860.258C1822.03 790.621 1774.67 681.992 1785.35 576.609C1797.51 456.604 1890.55 363.314 1990.05 319.524" stroke="#A692FF" stroke-width="5" stroke-linecap="round" stroke-linejoin="round"/>
<path d="M1334.75 1106.75C1146.24 1066.85 962.01 979.723 811.516 845.393C626.607 680.344 514.342 422.878 539.656 173.106C568.483 -111.323 788.995 -332.433 1024.82 -436.221" stroke="#A692FF" stroke-width="5" stroke-linecap="round" stroke-linejoin="round"/>
</svg>
