<svg width="1920" height="590" viewBox="0 0 1920 590" fill="none" xmlns="http://www.w3.org/2000/svg">
<path d="M-140.124 233.321C-130.545 196.01 -111.571 159.958 -83.4575 131.046C-48.9146 95.5236 3.46646 75.2985 53.1366 82.486C109.699 90.6709 151.979 136.6 170.695 184.587" stroke="white" stroke-width="5" stroke-linecap="round" stroke-linejoin="round"/>
<path d="M1866.81 346.005C1787.28 329.169 1709.55 292.41 1646.05 235.734C1568.03 166.097 1520.67 57.4677 1531.35 -47.915C1543.51 -167.92 1636.55 -261.21 1736.05 -305" stroke="white" stroke-width="5" stroke-linecap="round" stroke-linejoin="round"/>
<path d="M787.24 976.094C697.064 957.005 608.935 915.329 536.945 851.071C448.492 772.118 394.789 648.957 406.899 529.477C420.688 393.418 526.172 287.648 638.982 238" stroke="white" stroke-width="5" stroke-linecap="round" stroke-linejoin="round"/>
</svg>
