<svg width="130" height="22" viewBox="0 0 130 22" fill="none" xmlns="http://www.w3.org/2000/svg">
<path d="M22 8.7085H13.6583L11 0.458496L8.34166 8.7085H0L6.80168 13.5485L4.19835 21.5418L11 16.5918L17.8017 21.5418L15.1983 13.5485L22 8.7085Z" fill="#FFCB00"/>
<g clip-path="url(#clip0)">
<path d="M48.8887 8.7085H40.547L37.8887 0.458496L35.2303 8.7085H26.8887L33.6904 13.5485L31.087 21.5418L37.8887 16.5918L44.6904 21.5418L42.087 13.5485L48.8887 8.7085Z" fill="#FFCB00"/>
</g>
<g clip-path="url(#clip1)">
<path d="M75.7773 8.7085H67.4357L64.7774 0.458496L62.119 8.7085H53.7773L60.579 13.5485L57.9757 21.5418L64.7774 16.5918L71.5791 21.5418L68.9757 13.5485L75.7773 8.7085Z" fill="#FFCB00"/>
</g>
<g clip-path="url(#clip2)">
<path d="M102.666 8.7085H94.3244L91.666 0.458496L89.0077 8.7085H80.666L87.4677 13.5485L84.8644 21.5418L91.666 16.5918L98.4677 21.5418L95.8643 13.5485L102.666 8.7085Z" fill="#FFCB00"/>
</g>
<g clip-path="url(#clip3)">
<path d="M129.555 8.7085H121.213L118.555 0.458496L115.896 8.7085H107.555L114.356 13.5485L111.753 21.5418L118.555 16.5918L125.356 21.5418L122.753 13.5485L129.555 8.7085Z" fill="#ECE6E6"/>
</g>
<defs>
<clipPath id="clip0">
<rect width="22" height="22" fill="white" transform="translate(26.8887)"/>
</clipPath>
<clipPath id="clip1">
<rect width="22" height="22" fill="white" transform="translate(53.7773)"/>
</clipPath>
<clipPath id="clip2">
<rect width="22" height="22" fill="white" transform="translate(80.666)"/>
</clipPath>
<clipPath id="clip3">
<rect width="22" height="22" fill="white" transform="translate(107.555)"/>
</clipPath>
</defs>
</svg>
