<svg width="86" height="35" viewBox="0 0 86 35" fill="none" xmlns="http://www.w3.org/2000/svg">
<g clip-path="url(#clip0)">
<path d="M47.3511 7.53027C39.6271 7.53027 33.7838 13.6456 33.7838 21.2214C33.7838 29.2079 39.8734 34.9125 47.3511 34.9125C54.8288 34.9125 60.896 29.2079 60.896 21.2214C60.896 13.6456 55.075 7.53027 47.3511 7.53027ZM47.3511 14.7637C50.6869 14.7409 53.4183 17.6389 53.4183 21.2214C53.4183 24.7811 50.6869 27.679 47.3511 27.679C44.0152 27.679 41.2839 24.7811 41.2839 21.2214C41.2839 17.6389 44.0152 14.7637 47.3511 14.7637Z" fill="#6B6D71"/>
<path d="M85.9999 30.12C85.9999 32.767 83.8954 34.9119 81.2983 34.9119C78.7013 34.9119 76.5968 32.767 76.5968 30.12C76.5968 27.4731 78.7013 25.3281 81.2983 25.3281C83.8954 25.3281 85.9999 27.4731 85.9999 30.12Z" fill="#6B6D71"/>
<path d="M72.3139 33.9996H64.9258V0H72.3139V33.9996Z" fill="#6B6D71"/>
<path fill-rule="evenodd" clip-rule="evenodd" d="M0 33.9996L13.433 0H20.3733L33.5824 33.9996H24.1793L22.6121 29.2077H10.9702L9.40306 33.9996H0ZM20.3733 22.1339H13.433L16.9031 10.7247L20.3733 22.1339Z" fill="#6B6D71"/>
</g>
<defs>
<clipPath id="clip0">
<rect width="86" height="35" fill="white"/>
</clipPath>
</defs>
</svg>
