<svg width="27" height="27" viewBox="0 0 27 27" fill="none" xmlns="http://www.w3.org/2000/svg">
<path d="M18.5612 0C17.1218 0.0995619 15.4394 1.02093 14.459 2.22074C13.5646 3.30917 12.8288 4.92578 13.1157 6.49684C14.6885 6.54577 16.3135 5.60247 17.2551 4.38241C18.136 3.24673 18.8026 1.64024 18.5612 0Z" fill="white"/>
<path d="M24.281 8.7388C22.8989 7.00574 20.9566 6 19.1223 6C16.7008 6 15.6765 7.15931 13.994 7.15931C12.2593 7.15931 10.9414 6.00338 8.8472 6.00338C6.79015 6.00338 4.59979 7.26055 3.21099 9.41042C1.25856 12.4378 1.59268 18.1297 4.75673 22.9778C5.88903 24.7126 7.40102 26.6633 9.37876 26.6802C11.1388 26.6971 11.6349 25.5513 14.0194 25.5394C16.4038 25.5259 16.856 26.6954 18.6127 26.6768C20.5921 26.6616 22.1868 24.5 23.3191 22.7652C24.1308 21.5215 24.4329 20.8955 25.0623 19.4915C20.4841 17.7483 19.7501 11.238 24.281 8.7388Z" fill="white"/>
</svg>
