<svg width="64" height="64" viewBox="0 0 64 64" fill="none" xmlns="http://www.w3.org/2000/svg">
<g clip-path="url(#clip0)">
<path d="M32.0014 0C14.3546 0 0 14.3538 0 32.0028C0 49.643 14.3546 64 32.0014 64C49.6424 64 64 49.643 64 32.0028C64 14.3538 49.6424 0 32.0014 0ZM32.0033 4.44092C47.2262 4.44092 59.5645 16.7789 59.5645 32.0011C59.5645 47.2233 47.2262 59.5613 32.0033 59.5613C16.7805 59.5613 4.44195 47.2233 4.44195 32.0011C4.44195 16.7789 16.7805 4.44092 32.0033 4.44092Z" fill="#606062"/>
<path d="M29.6317 30.8156H18.4469L21.0107 26.8068H27.9593L30.497 22.8126H14.9944L12.4685 26.8068H16.1889L11.1224 34.8127H31.9479L39.8579 22.2533L42.7189 26.801H40.2512L37.7282 30.8156H45.2536L47.7854 34.8127H52.5868L39.8579 14.6611L29.6317 30.8156ZM20.0405 14.8097L17.5233 18.8039L33.9669 18.7981L36.487 14.8097H20.0405V14.8097Z" fill="#606062"/>
<path d="M53.0441 37.1484V37.2912H53.3733V37.9904H53.5364V37.2912H53.8657V37.1484H53.0441Z" fill="#606062"/>
<path d="M54.8535 37.1484L54.5301 37.6495L54.2009 37.1484H54.0581V37.9875H54.2009V37.4689L54.1863 37.3786L54.2358 37.4631L54.5039 37.8855H54.533L54.801 37.4689L54.8389 37.3786V37.4689V37.9875H54.9846V37.1484H54.8535Z" fill="#606062"/>
<path d="M16.7035 43.6659C16.7035 44.1758 16.5258 44.6186 16.1732 44.974C15.8149 45.3294 15.3779 45.5101 14.8709 45.5101H12.7121C12.1935 45.5101 11.7594 45.3353 11.4127 44.9915C11.0718 44.6477 10.897 44.2224 10.897 43.698V42.8415H12.2284L12.4324 43.6339C12.5198 43.966 12.7441 44.1321 13.1083 44.1321H14.5767C14.7631 44.1321 14.9088 44.0621 15.0253 43.934C15.1361 43.797 15.1914 43.6222 15.1914 43.4212V42.4773C15.1914 42.017 14.9904 41.7781 14.5767 41.7781H12.7295C12.2284 41.7781 11.7972 41.6033 11.433 41.2508C11.0805 40.8837 10.897 40.4467 10.897 39.9339V38.6929C10.897 38.1947 11.0805 37.7635 11.433 37.4023C11.7972 37.041 12.2284 36.8662 12.7295 36.8662H14.8709C15.3779 36.8662 15.8091 37.0381 16.1587 37.376C16.5112 37.7198 16.6773 38.151 16.6773 38.6696V39.4445H15.3546L15.1564 38.7424C15.0516 38.4044 14.8214 38.2413 14.4834 38.2413H13.0384C12.8461 38.2413 12.6975 38.3112 12.5839 38.4482C12.4673 38.5792 12.4149 38.7482 12.4149 38.958V39.6863C12.4149 40.1379 12.6217 40.3651 13.0384 40.3651H14.8709C15.372 40.3651 15.8091 40.5457 16.1616 40.9128C16.5258 41.277 16.7035 41.7023 16.7035 42.2034V43.6659Z" fill="#606062"/>
<path d="M24.256 40.503C24.256 41.007 24.0695 41.4411 23.7112 41.7995C23.347 42.1607 22.9071 42.3413 22.403 42.3413H20.0257V45.511H18.4961V36.8672H22.403C22.9071 36.8672 23.347 37.0478 23.7112 37.4032C24.0695 37.7587 24.256 38.1898 24.256 38.688V40.503ZM22.103 38.2627H20.0257V40.9429H22.103L22.5458 40.7419C22.6594 40.6079 22.7148 40.4418 22.7148 40.2292V38.9706C22.7148 38.7609 22.6594 38.6006 22.5458 38.4637L22.103 38.2627Z" fill="#606062"/>
<path d="M37.8188 45.512L36.4145 42.1326H34.9636V45.512H33.4312V36.8682H37.2565C37.7693 36.8682 38.2005 37.0488 38.5559 37.4013C38.9114 37.7626 39.0949 38.1966 39.0949 38.689V40.1952C39.0949 40.5885 38.9842 40.9439 38.7715 41.2557C38.5472 41.5703 38.2675 41.7946 37.9237 41.9374L39.4445 45.512H37.8188ZM36.9681 38.2637H34.9636V40.7342H36.9681L37.3906 40.5419C37.5071 40.4108 37.5595 40.2447 37.5595 40.035V38.9687C37.5595 38.7677 37.5071 38.6016 37.3906 38.4618L36.9681 38.2637Z" fill="#606062"/>
<path d="M46.0007 38.2617H43.7836V45.5101H42.2569V38.2617H40.0543V36.8691H46.0007V38.2617Z" fill="#606062"/>
<path d="M52.9274 43.6659C52.9274 44.1758 52.7468 44.6186 52.3972 44.974C52.033 45.3294 51.5989 45.5101 51.0861 45.5101H48.9273C48.4145 45.5101 47.9833 45.3353 47.6308 44.9915C47.2899 44.6477 47.1122 44.2224 47.1122 43.698V42.8415H48.4465L48.6447 43.6339C48.7379 43.966 48.9651 44.1321 49.3264 44.1321H50.7948C50.9783 44.1321 51.1298 44.0621 51.2464 43.934C51.3571 43.797 51.4037 43.6222 51.4037 43.4212V42.4773C51.4037 42.017 51.2056 41.7781 50.7948 41.7781H48.9535C48.4465 41.7781 48.0095 41.6033 47.6541 41.2508C47.2986 40.8837 47.1122 40.4467 47.1122 39.9339V38.6929C47.1122 38.1947 47.2986 37.7635 47.6541 37.4023C48.0095 37.041 48.4465 36.8662 48.9535 36.8662H51.0861C51.5989 36.8662 52.0272 37.0381 52.3768 37.376C52.7235 37.7198 52.9012 38.151 52.9012 38.6696V39.4445H51.5756L51.3717 38.7424C51.2668 38.4044 51.0424 38.2413 50.7016 38.2413H49.2507C49.0642 38.2413 48.9069 38.3112 48.802 38.4482C48.6854 38.5792 48.633 38.7482 48.633 38.958V39.6863C48.633 40.1379 48.8399 40.3651 49.2507 40.3651H51.0861C51.5931 40.3651 52.0214 40.5457 52.3768 40.9128C52.7468 41.277 52.9274 41.7023 52.9274 42.2034V43.6659Z" fill="#606062"/>
<path d="M29.4311 38.2617H27.9628L27.5141 38.4627C27.4092 38.5997 27.3509 38.7657 27.3509 38.9726V43.4008C27.3509 43.6048 27.4092 43.7679 27.5141 43.9048L27.9628 44.1204H29.4311L29.874 43.9048C29.9905 43.7679 30.0488 43.6048 30.0488 43.4008V38.9726C30.0488 38.7657 29.9905 38.5997 29.874 38.4627L29.4311 38.2617ZM31.5725 43.6543C31.5725 44.1787 31.3948 44.6157 31.0365 44.974C30.6694 45.3265 30.244 45.5101 29.7254 45.5101H27.6598C27.1499 45.5101 26.7071 45.3265 26.3545 44.974C25.9991 44.6157 25.8126 44.1787 25.8126 43.6543V38.6841C25.8126 38.1947 25.9991 37.7577 26.3545 37.4023C26.7071 37.0439 27.1499 36.8691 27.6598 36.8691H29.7254C30.244 36.8691 30.6694 37.0439 31.0365 37.3965C31.3948 37.7461 31.5725 38.186 31.5725 38.6841V43.6543Z" fill="#606062"/>
</g>
<defs>
<clipPath id="clip0">
<rect width="64" height="64" fill="white"/>
</clipPath>
</defs>
</svg>
