<svg width="133" height="15" viewBox="0 0 133 15" fill="none" xmlns="http://www.w3.org/2000/svg">
<g clip-path="url(#clip0)">
<path d="M13.2185 14.7355L8.22375 11.5435L0.500093 14.7235L5.05032 9.53954L0 6.31754H7.87183L13.2185 0.227539V6.31754H20.8496L13.2185 9.47954V14.7355Z" fill="#6B6D71"/>
<path d="M22.7017 3.20368C22.9672 3.20368 23.1895 2.99368 23.1895 2.73568V0.69568C23.1895 0.43768 22.9734 0.22168 22.7017 0.22168H14.515V3.20368H22.7017Z" fill="#6B6D71"/>
<path d="M22.7017 14.7662C22.9672 14.7662 23.1895 14.5562 23.1895 14.2982V12.2582C23.1895 12.0002 22.9734 11.7842 22.7017 11.7842H14.515V14.7662H22.7017Z" fill="#6B6D71"/>
<path d="M132.512 0.21582H122.288C122.023 0.21582 121.801 0.42582 121.801 0.68982V2.72982C121.801 2.98782 122.017 3.20382 122.288 3.20382H125.863V14.3098C125.863 14.5678 126.079 14.7838 126.351 14.7838H128.45C128.715 14.7838 128.938 14.5738 128.938 14.3098V3.20382H132.512C132.778 3.20382 133 2.99382 133 2.72982V0.68982C133 0.42582 132.784 0.21582 132.512 0.21582Z" fill="#6B6D71"/>
<path d="M91.7641 3.47982C91.5233 2.83782 91.159 2.26782 90.6898 1.78782C90.2206 1.30782 89.6402 0.92382 88.9734 0.64182C88.3004 0.35982 87.5349 0.21582 86.7014 0.21582H81.1386C80.8731 0.21582 80.6509 0.42582 80.6509 0.68982V14.2978C80.6509 14.5558 80.867 14.7718 81.1386 14.7718H83.2378C83.5033 14.7718 83.7255 14.5618 83.7255 14.2978V10.8118H86.7014C87.5349 10.8118 88.3004 10.6738 88.9611 10.3918C89.6279 10.1158 90.202 9.73182 90.6713 9.25182C91.1405 8.77182 91.5047 8.21382 91.7517 7.58982C91.9987 6.96582 92.1221 6.17982 92.1221 5.48982C92.1221 4.78782 92.0048 4.10982 91.7641 3.47982ZM88.8685 6.44382C88.7573 6.72582 88.603 6.97782 88.4054 7.18182C88.214 7.38582 87.9917 7.51782 87.7263 7.63182C87.467 7.74582 86.9977 7.81182 86.0902 7.81182H83.7317V3.20382H86.831C87.1644 3.20382 87.467 3.26382 87.7324 3.37782C88.0041 3.49182 88.2387 3.65382 88.4363 3.85182C88.6277 4.04982 88.7758 4.28982 88.8808 4.57182C88.9858 4.86582 89.0413 5.17782 89.0413 5.50782C89.0351 5.83782 88.9796 6.14982 88.8685 6.44382Z" fill="#6B6D71"/>
<path d="M70.8589 4.39177C70.8466 4.69177 70.9268 4.87777 71.0442 5.03977C71.1738 5.22577 71.3652 5.37577 71.5998 5.49577C71.8653 5.62777 72.174 5.73577 72.5259 5.80777C72.9087 5.89177 73.3038 5.96377 73.6928 6.02977C74.4028 6.13777 75.1005 6.27577 75.7734 6.43777C76.4773 6.60577 77.0947 6.85777 77.6256 7.19377C78.1751 7.53577 78.6073 7.99777 78.9222 8.55577C79.237 9.11977 79.379 9.83977 79.342 10.6918C79.305 11.5198 79.0889 12.2278 78.6937 12.7978C78.3048 13.3558 77.8108 13.8058 77.212 14.1478C76.6254 14.4778 76.0513 14.7238 75.3351 14.8558C74.6312 14.9818 73.8471 15.0238 73.1618 14.9938C71.4578 14.9218 68.945 13.9738 67.6855 12.2938C67.5867 12.1618 67.4632 11.9278 67.7349 11.6638C68.0066 11.3938 69.3031 10.1158 69.3031 10.1158C69.5624 9.84577 69.8155 10.0378 69.9267 10.1938C70.6614 11.2438 72.1308 12.0238 73.2853 12.0718C73.8904 12.0958 73.9645 12.0718 74.3411 12.0238C74.6868 11.9818 74.9893 11.8918 75.2733 11.7658C75.5326 11.6518 75.7549 11.4958 75.9278 11.2798C76.0883 11.0818 76.1809 10.7998 76.2056 10.4698C76.2303 10.1578 76.1377 9.90577 75.9895 9.70177C75.829 9.47977 75.6006 9.31177 75.3351 9.17377C75.0326 9.01777 74.6868 8.92177 74.304 8.85577C73.8904 8.78377 73.4829 8.71777 73.0878 8.65777C72.4333 8.57377 71.7789 8.44777 71.1491 8.27377C70.5008 8.09377 69.9143 7.83577 69.4204 7.51777C68.9018 7.18177 68.4881 6.74977 68.1794 6.22777C67.8646 5.69377 67.7225 5.08777 67.7596 4.32577C67.7966 3.55777 67.9942 2.87977 68.3461 2.31577C68.698 1.75777 69.1549 1.29577 69.7106 0.947772C70.2539 0.605772 70.8775 0.353772 71.5689 0.203772C72.9149 -0.0902281 74.2546 -0.042228 75.5882 0.365772C77.0268 0.809772 78.1751 1.87777 78.7061 2.63977C78.8049 2.77777 78.9036 2.99977 78.6937 3.22777C78.4838 3.45577 77.2181 4.66177 77.2181 4.66177C76.9465 4.91377 76.6625 4.85377 76.5081 4.63777C75.7302 3.52777 74.73 3.02977 73.5693 2.95177C72.316 2.84977 70.9145 3.12577 70.8589 4.39177Z" fill="#6B6D71"/>
<path d="M64.438 1.97386C63.7465 1.33186 62.9316 0.839859 62.0116 0.503859C61.1041 0.173859 60.1224 0.00585938 59.1099 0.00585938C58.1097 0.00585938 57.1404 0.173859 56.2204 0.503859C55.2943 0.839859 54.4732 1.33186 53.7755 1.97386C53.0779 2.61586 52.516 3.41386 52.1024 4.33786C51.6887 5.26786 51.485 6.32986 51.485 7.49986C51.485 8.68186 51.6887 9.74986 52.0962 10.6679C52.4975 11.5919 53.0593 12.3839 53.7508 13.0259C54.4423 13.6679 55.2573 14.1599 56.1772 14.4959C57.0848 14.8259 58.0665 14.9939 59.079 14.9939C60.1903 14.9939 61.2275 14.8139 62.1598 14.4539C63.0982 14.0939 63.9132 13.5719 64.5862 12.9059C65.253 12.2459 65.7839 11.4479 66.1605 10.5299C66.5372 9.61786 66.7224 8.59786 66.7224 7.49986C66.7224 6.32986 66.5125 5.26786 66.105 4.33786C65.6913 3.41386 65.1295 2.61586 64.438 1.97386ZM63.2094 9.51586C62.9748 10.0799 62.6475 10.5539 62.2462 10.9259C61.8388 11.3039 61.3634 11.5919 60.8324 11.7839C60.2891 11.9759 59.7026 12.0779 59.0852 12.0779C58.4554 12.0779 57.8627 11.9819 57.3194 11.7839C56.7884 11.5919 56.3192 11.3099 55.9303 10.9319C55.5351 10.5539 55.2202 10.0799 54.9795 9.51586C54.7387 8.94586 54.6214 8.27386 54.6214 7.51786C54.6214 6.76186 54.7448 6.08986 54.9795 5.51986C55.2141 4.95586 55.5351 4.48186 55.9364 4.10386C56.3316 3.72586 56.807 3.43786 57.3441 3.23986C57.8874 3.04186 58.4801 2.93986 59.1037 2.93986C59.7149 2.93986 60.3014 3.04186 60.8447 3.23986C61.3757 3.43786 61.8511 3.73186 62.2462 4.10986C62.6475 4.49386 62.9686 4.97386 63.2032 5.53786C63.444 6.10786 63.5613 6.77386 63.5613 7.51186C63.5736 8.27386 63.4502 8.94586 63.2094 9.51586Z" fill="#6B6D71"/>
<path d="M106.131 1.97386C105.439 1.33186 104.624 0.839859 103.704 0.503859C102.797 0.173859 101.815 0.00585938 100.803 0.00585938C99.8024 0.00585938 98.8331 0.173859 97.9132 0.503859C96.9871 0.839859 96.1659 1.33186 95.4683 1.97386C94.7706 2.61586 94.2088 3.41386 93.7951 4.33786C93.3815 5.26786 93.1777 6.32986 93.1777 7.49986C93.1777 8.68186 93.3815 9.74986 93.789 10.6679C94.1903 11.5919 94.7521 12.3839 95.4436 13.0259C96.1351 13.6679 96.95 14.1599 97.87 14.4959C98.7775 14.8259 99.7592 14.9939 100.772 14.9939C101.883 14.9939 102.92 14.8139 103.853 14.4539C104.791 14.0939 105.606 13.5719 106.279 12.9059C106.946 12.2459 107.477 11.4479 107.853 10.5299C108.23 9.61786 108.415 8.59786 108.415 7.49986C108.415 6.32986 108.205 5.26786 107.798 4.33786C107.378 3.41386 106.822 2.61586 106.131 1.97386ZM104.902 9.51586C104.668 10.0799 104.34 10.5539 103.939 10.9259C103.532 11.3039 103.056 11.5919 102.525 11.7839C101.982 11.9759 101.395 12.0779 100.778 12.0779C100.148 12.0779 99.5555 11.9819 99.0121 11.7839C98.4812 11.5919 98.012 11.3099 97.623 10.9319C97.2279 10.5539 96.913 10.0799 96.6722 9.51586C96.4314 8.94586 96.3141 8.27386 96.3141 7.51786C96.3141 6.76186 96.4376 6.08986 96.6722 5.51986C96.9068 4.95586 97.2279 4.48186 97.6292 4.10386C98.0243 3.72586 98.4997 3.43786 99.0368 3.23986C99.5802 3.04186 100.173 2.93986 100.796 2.93986C101.408 2.93986 101.994 3.04186 102.538 3.23986C103.068 3.43786 103.544 3.73186 103.939 4.10986C104.34 4.49386 104.661 4.97386 104.896 5.53786C105.137 6.10786 105.254 6.77386 105.254 7.51186C105.26 8.27386 105.143 8.94586 104.902 9.51586Z" fill="#6B6D71"/>
<path d="M36.161 0.21582H34.0495C33.784 0.21582 33.5618 0.42582 33.5618 0.68982V9.69582C33.5618 10.0798 33.4939 10.4158 33.3642 10.6978C33.2345 10.9738 33.0555 11.2138 32.8332 11.3998C32.6048 11.5918 32.3208 11.7418 32.0059 11.8438C31.6787 11.9518 31.123 12.0058 30.7403 12.0058C30.3513 12.0058 29.7648 11.9518 29.4314 11.8438C29.1042 11.7418 28.8202 11.5918 28.5794 11.3938C28.3509 11.2078 28.1657 10.9738 28.0422 10.6978C27.9126 10.4158 27.8447 10.0798 27.8447 9.69582V0.68982C27.8447 0.43182 27.6286 0.21582 27.3569 0.21582H25.2578C24.9923 0.21582 24.77 0.42582 24.77 0.68982V9.76782C24.77 10.6018 24.9305 11.3518 25.2454 11.9938C25.5603 12.6358 25.9986 13.1878 26.5543 13.6378C27.0976 14.0818 27.7397 14.4238 28.4559 14.6458C29.1597 14.8678 29.9315 14.9818 30.7341 14.9818C31.5244 14.9818 32.2899 14.8678 32.9938 14.6458C33.7099 14.4178 34.3459 14.0758 34.883 13.6318C35.4201 13.1818 35.8523 12.6298 36.1672 11.9938C36.4821 11.3518 36.6426 10.6018 36.6426 9.76782V0.68982C36.6488 0.42582 36.4327 0.21582 36.161 0.21582Z" fill="#6B6D71"/>
<path d="M50.9353 13.9738L47.5211 9.85782C47.5211 9.85782 50.2747 8.88582 50.2747 5.48382C50.2747 4.78182 50.1512 4.10982 49.9166 3.47382C49.6758 2.83182 49.3115 2.26182 48.8423 1.78182C48.3731 1.30182 47.7927 0.91782 47.1259 0.63582C46.453 0.35982 45.6874 0.21582 44.8539 0.21582H39.2973C39.0318 0.21582 38.8096 0.42582 38.8096 0.68982V14.2978C38.8096 14.5618 39.0257 14.7718 39.2973 14.7718H41.3903C41.6558 14.7718 41.878 14.5618 41.878 14.2978V3.20382H44.9897C45.3231 3.20382 45.6257 3.26382 45.8911 3.37782C46.1628 3.49182 46.3974 3.65382 46.595 3.85182C46.7864 4.04982 46.9345 4.28982 47.0395 4.57182C47.1445 4.85982 47.2 5.17782 47.2 5.50782C47.2 5.83782 47.1445 6.14982 47.0333 6.43782C46.9222 6.71982 46.7678 6.97182 46.5703 7.17582C46.3789 7.37982 46.1566 7.51182 45.8911 7.62582C45.6318 7.73982 45.1626 7.81182 44.255 7.81182H42.9523C42.693 7.81182 42.4954 8.03982 42.693 8.34582L47.5581 14.5678C47.6507 14.6938 47.7989 14.7658 47.9532 14.7658H50.6389C51.0402 14.7658 51.2995 14.4118 50.9353 13.9738Z" fill="#6B6D71"/>
<path d="M121.986 13.974L118.571 9.85796C118.571 9.85796 121.325 8.88596 121.325 5.48396C121.325 4.78196 121.202 4.10996 120.967 3.47396C120.726 2.83196 120.362 2.26196 119.893 1.78196C119.423 1.30196 118.843 0.917961 118.176 0.635961C117.503 0.353961 116.738 0.209961 115.904 0.209961H110.348C110.082 0.209961 109.86 0.419961 109.86 0.683961V14.292C109.86 14.556 110.076 14.766 110.348 14.766H112.441C112.706 14.766 112.928 14.556 112.928 14.292V3.20396H116.04C116.374 3.20396 116.676 3.26396 116.942 3.37796C117.213 3.49196 117.448 3.65396 117.645 3.85196C117.837 4.04996 117.985 4.28996 118.09 4.57196C118.195 4.85996 118.25 5.17796 118.25 5.50796C118.25 5.83796 118.195 6.14996 118.084 6.43796C117.973 6.71996 117.818 6.97196 117.621 7.17596C117.429 7.37996 117.207 7.51196 116.942 7.62596C116.682 7.73996 116.213 7.81196 115.305 7.81196H114.003C113.743 7.81196 113.546 8.03996 113.743 8.34596L118.609 14.568C118.701 14.694 118.849 14.766 119.004 14.766H121.689C122.084 14.766 122.35 14.412 121.986 13.974Z" fill="#6B6D71"/>
</g>
<defs>
<clipPath id="clip0">
<rect width="133" height="15" fill="white"/>
</clipPath>
</defs>
</svg>
