<svg width="97" height="37" viewBox="0 0 97 37" fill="none" xmlns="http://www.w3.org/2000/svg">
<g clip-path="url(#clip0)">
<path d="M77.8465 7.17957H83.3413V9.03823C83.9312 8.52968 85.8363 6.72377 89.3545 6.72377C93.4945 6.72377 96.7837 9.74989 96.7837 14.5016V26.836H90.9796V16.0304C90.9796 13.3814 89.6749 11.8101 87.3135 11.8101C85.0261 11.8101 83.6498 13.2917 83.6498 16.0304V26.836H77.8465V7.17957ZM53.42 17.0113C53.42 11.3385 58.0084 6.72534 64.0089 6.72534C70.0165 6.72534 74.6033 11.3385 74.6033 17.0113C74.6033 22.6786 70.0165 27.2847 64.0089 27.2847C58.0076 27.2855 53.42 22.6786 53.42 17.0113ZM59.1493 17.0098C59.1493 19.7265 61.1983 21.9607 64.0494 21.9607C66.9022 21.9607 68.9511 19.7265 68.9511 17.0098C68.9511 14.2907 66.9022 12.0604 64.0494 12.0604C61.1983 12.0604 59.1493 14.2907 59.1493 17.0098ZM19.2012 26.836H26.0063L32.1237 19.0519L35.9377 22.877L27.2101 33.6968H34.0391L39.6277 26.5259L50.1466 37.126H58.3908L43.2723 22.0733L55.1787 7.17957H48.3458L39.5466 18.3662L35.7389 14.5764L45.5272 2.37115H38.7125L32.0275 10.8874L28.3971 7.17957H20.2666L28.456 15.366L19.2012 26.836ZM0 0V26.836H17.8504V21.8284H6.07284V15.4164H17.3217V10.5623H6.07284V4.99972H17.8504V0H0Z" fill="#606062"/>
</g>
<defs>
<clipPath id="clip0">
<rect width="97" height="37" fill="white"/>
</clipPath>
</defs>
</svg>
