<svg width="24" height="24" viewBox="0 0 24 24" fill="none" xmlns="http://www.w3.org/2000/svg">
<g clip-path="url(#clip0)">
<path d="M22.6752 4.24134e-08H1.32367C0.592529 0.000366253 -0.000183063 0.593445 4.24134e-08 1.32477V22.6763C0.000366253 23.4075 0.593445 24.0002 1.32477 24H22.6752C23.4067 24.0002 23.9998 23.4073 24 22.6758C24 22.6756 24 22.6754 24 22.6752V1.32367C23.9996 0.592529 23.4066 -0.000183063 22.6752 4.24134e-08Z" fill="#5475E5"/>
<path d="M16.5703 24.0004V14.7192H19.6992L20.168 11.0864H16.5703V8.77264C16.5703 7.72327 16.8616 7.00824 18.3664 7.00824H20.2734V3.76782C19.9417 3.72369 18.8033 3.625 17.4787 3.625C14.7131 3.625 12.8203 5.3125 12.8203 8.41284V11.0864H9.70312V14.7192H12.8203V24.0004H16.5703Z" fill="white"/>
</g>
<defs>
<clipPath id="clip0">
<rect width="24" height="24" fill="white"/>
</clipPath>
</defs>
</svg>
