<svg width="95" height="46" viewBox="0 0 95 46" fill="none" xmlns="http://www.w3.org/2000/svg">
<rect x="0.462891" y="0.554688" width="94.5376" height="44.7366" rx="6" fill="#EFF1F5"/>
<g clip-path="url(#clip0)">
<path d="M35.7667 36.79V34.9413C35.7667 34.2326 35.3306 33.7704 34.5828 33.7704C34.209 33.7704 33.804 33.8936 33.5236 34.2942C33.3055 33.9553 32.9939 33.7704 32.5266 33.7704C32.215 33.7704 31.9035 33.8628 31.6543 34.2018V33.832H31V36.79H31.6543V35.157C31.6543 34.6331 31.9347 34.3866 32.3708 34.3866C32.807 34.3866 33.0251 34.664 33.0251 35.157V36.79H33.6793V35.157C33.6793 34.6331 33.9909 34.3866 34.3959 34.3866C34.8321 34.3866 35.0502 34.664 35.0502 35.157V36.79H35.7667ZM45.456 33.832H44.3967V32.9384H43.7424V33.832H43.1505V34.4175H43.7424V35.7732C43.7424 36.4511 44.0228 36.8517 44.7706 36.8517C45.051 36.8517 45.3625 36.7592 45.5806 36.636L45.3937 36.0813C45.2067 36.2046 44.9886 36.2354 44.8329 36.2354C44.5213 36.2354 44.3967 36.0505 44.3967 35.7424V34.4175H45.456V33.832ZM51.0016 33.7704C50.6277 33.7704 50.3785 33.9553 50.2227 34.2018V33.832H49.5685V36.79H50.2227V35.1262C50.2227 34.6332 50.4408 34.3558 50.8458 34.3558C50.9704 34.3558 51.1262 34.3866 51.2508 34.4175L51.4378 33.8012C51.3131 33.7704 51.1262 33.7704 51.0016 33.7704ZM42.6209 34.0785C42.3093 33.8628 41.8731 33.7704 41.4058 33.7704C40.6581 33.7704 40.1596 34.1401 40.1596 34.7256C40.1596 35.2186 40.5335 35.4959 41.1877 35.5883L41.4993 35.6192C41.842 35.6808 42.0289 35.7732 42.0289 35.9273C42.0289 36.143 41.7797 36.297 41.3435 36.297C40.9073 36.297 40.5646 36.143 40.3465 35.9889L40.035 36.4819C40.3777 36.7284 40.845 36.8517 41.3123 36.8517C42.1847 36.8517 42.6832 36.4511 42.6832 35.8965C42.6832 35.3727 42.2781 35.0953 41.655 35.0029L41.3435 34.9721C41.0631 34.9413 40.845 34.8796 40.845 34.6948C40.845 34.4791 41.0631 34.3558 41.4058 34.3558C41.7797 34.3558 42.1535 34.5099 42.3405 34.6023L42.6209 34.0785ZM60.0054 33.7704C59.6316 33.7704 59.3823 33.9553 59.2265 34.2018V33.832H58.5723V36.79H59.2265V35.1262C59.2265 34.6332 59.4446 34.3558 59.8496 34.3558C59.9743 34.3558 60.13 34.3866 60.2547 34.4175L60.4416 33.8012C60.317 33.7704 60.13 33.7704 60.0054 33.7704ZM51.6558 35.311C51.6558 36.2046 52.2789 36.8517 53.2448 36.8517C53.6809 36.8517 53.9925 36.7592 54.304 36.5127L53.9925 35.9889C53.7432 36.1738 53.494 36.2662 53.2136 36.2662C52.684 36.2662 52.3101 35.8965 52.3101 35.311C52.3101 34.7564 52.684 34.3867 53.2136 34.3558C53.494 34.3558 53.7432 34.4483 53.9925 34.6332L54.304 34.1093C53.9925 33.8628 53.6809 33.7704 53.2448 33.7704C52.2789 33.7704 51.6558 34.4175 51.6558 35.311ZM57.6999 35.311V33.832H57.0457V34.2018C56.8276 33.9245 56.516 33.7704 56.111 33.7704C55.2698 33.7704 54.6156 34.4175 54.6156 35.311C54.6156 36.2046 55.2698 36.8517 56.111 36.8517C56.5472 36.8517 56.8587 36.6976 57.0457 36.4203V36.79H57.6999V35.311ZM55.301 35.311C55.301 34.7872 55.6437 34.3558 56.2045 34.3558C56.7341 34.3558 57.108 34.7564 57.108 35.311C57.108 35.8348 56.7341 36.2662 56.2045 36.2662C55.6437 36.2354 55.301 35.8348 55.301 35.311ZM47.4811 33.7704C46.6087 33.7704 45.9856 34.3866 45.9856 35.311C45.9856 36.2354 46.6087 36.8517 47.5122 36.8517C47.9484 36.8517 48.3846 36.7284 48.7273 36.4511L48.4157 35.9889C48.1665 36.1738 47.8549 36.297 47.5434 36.297C47.1384 36.297 46.7333 36.1122 46.6399 35.5883H48.8519C48.8519 35.4959 48.8519 35.4343 48.8519 35.3418C48.883 34.3866 48.3222 33.7704 47.4811 33.7704ZM47.4811 34.325C47.8861 34.325 48.1665 34.5715 48.2288 35.0337H46.671C46.7333 34.6331 47.0137 34.325 47.4811 34.325ZM63.7129 35.311V32.6611H63.0586V34.2018C62.8405 33.9245 62.529 33.7704 62.124 33.7704C61.2828 33.7704 60.6285 34.4175 60.6285 35.311C60.6285 36.2046 61.2828 36.8517 62.124 36.8517C62.5601 36.8517 62.8717 36.6976 63.0586 36.4203V36.79H63.7129V35.311ZM61.3139 35.311C61.3139 34.7872 61.6566 34.3558 62.2174 34.3558C62.7471 34.3558 63.1209 34.7564 63.1209 35.311C63.1209 35.8348 62.7471 36.2662 62.2174 36.2662C61.6566 36.2354 61.3139 35.8348 61.3139 35.311ZM39.443 35.311V33.832H38.7888V34.2018C38.5707 33.9245 38.2591 33.7704 37.8541 33.7704C37.0129 33.7704 36.3587 34.4175 36.3587 35.311C36.3587 36.2046 37.0129 36.8517 37.8541 36.8517C38.2903 36.8517 38.6018 36.6976 38.7888 36.4203V36.79H39.443V35.311ZM37.0129 35.311C37.0129 34.7872 37.3556 34.3558 37.9164 34.3558C38.4461 34.3558 38.8199 34.7564 38.8199 35.311C38.8199 35.8348 38.4461 36.2662 37.9164 36.2662C37.3556 36.2354 37.0129 35.8348 37.0129 35.311Z" fill="black"/>
<path d="M52.2188 11.3682H42.4043V28.8094H52.2188V11.3682Z" fill="#76889D"/>
<path d="M43.0271 20.0885C43.0271 16.5448 44.7095 13.4017 47.2956 11.3679C45.395 9.88875 42.9959 8.99512 40.3787 8.99512C34.1784 8.99512 29.1621 13.9563 29.1621 20.0885C29.1621 26.2207 34.1784 31.1819 40.3787 31.1819C42.9959 31.1819 45.395 30.2882 47.2956 28.8091C44.7095 26.8061 43.0271 23.6322 43.0271 20.0885Z" fill="#3B4D62"/>
<path d="M65.4596 20.0885C65.4596 26.2207 60.4433 31.1819 54.243 31.1819C51.6259 31.1819 49.2268 30.2882 47.3262 28.8091C49.9434 26.7753 51.5947 23.6322 51.5947 20.0885C51.5947 16.5448 49.9122 13.4017 47.3262 11.3679C49.2268 9.88875 51.6259 8.99512 54.243 8.99512C60.4433 8.99512 65.4596 13.9871 65.4596 20.0885Z" fill="#9BADC2"/>
</g>
<defs>
<clipPath id="clip0">
<rect width="36.2957" height="27.8548" fill="white" transform="translate(29.1621 8.99512)"/>
</clipPath>
</defs>
</svg>
