<svg width="82" height="30" viewBox="0 0 82 30" fill="none" xmlns="http://www.w3.org/2000/svg">
<path d="M9.04522 29.9878C6.60195 29.8882 4.603 29.2019 3.03998 27.9272C2.74168 27.6837 2.03088 26.9536 1.79242 26.6457C1.15859 25.8275 0.727667 25.0313 0.440244 24.1479C-0.444177 21.4284 0.0109994 17.86 1.74221 13.9436C3.22448 10.5908 5.51169 7.26535 9.50207 2.65971C10.0899 1.982 11.8403 0 11.8516 0C11.8558 0 11.7604 0.169636 11.6403 0.376222C10.6028 2.16024 9.71502 4.26163 9.23139 6.08087C8.45448 8.99999 8.54819 11.5051 9.50583 13.4476C10.1664 14.7858 11.299 15.945 12.5725 16.5857C14.8019 17.7071 18.066 17.7998 22.0522 16.8572C22.3267 16.7919 35.9261 13.086 52.2734 8.62163C68.6206 4.15685 81.9979 0.506774 82 0.50978C82.0046 0.513645 44.0207 17.1986 24.3026 25.8546C21.1799 27.225 20.3449 27.5712 18.8768 28.1003C15.1241 29.4531 11.7625 30.0986 9.04522 29.9878Z" fill="#6B6D71"/>
</svg>
