<svg width="104" height="48" viewBox="0 0 104 48" fill="none" xmlns="http://www.w3.org/2000/svg">
<path fill-rule="evenodd" clip-rule="evenodd" d="M67.435 2.69785V0H56.6522V14.8127H67.435V12.3694H59.6527V8.34807H66.468V5.70112H59.6527V2.69785H67.435ZM64.4345 16.3398V22.0409H58.5339V16.3398H55.4839V31.1024H58.5339V24.4843H64.4345V31.1024H67.435V16.3398H64.4345ZM67.435 35.275V32.6295H56.6522V47.6444H67.435V44.948H59.6527V40.9768H66.468V38.5342H59.6527V35.275H67.435ZM54.9238 0H51.9234V5.70112H46.0241V0H43.0237V14.8127H46.0241V8.19537H51.9234V14.8127H54.9238V0ZM30.1064 0V2.69785H34.6834V14.8127H37.6838V2.69785H42.2608V0H30.1064ZM20.6473 15.9326C15.9177 15.9326 13.4258 18.6305 13.4258 23.7207C13.4258 29.0655 15.9177 31.7125 20.6473 31.7125C25.3768 31.7125 27.8179 29.0655 27.8179 23.7207C27.8179 18.6305 25.3768 15.9326 20.6473 15.9326ZM16.6806 23.7207C16.6806 20.3103 18.0028 18.6305 20.6473 18.6305C23.4952 18.6305 24.8174 20.3103 24.8174 23.7207C24.8174 27.3356 23.4952 29.0655 20.6473 29.0655C18.0028 29.0655 16.6806 27.3356 16.6806 23.7207ZM9.10312 16.3398V26.7749L3.20389 16.3398H0V31.1024H2.8479V20.7175L8.89969 31.1024H12.1036V16.3398H9.10312ZM23.0884 38.7371V35.275H30.6658V32.6295H20.0879V47.6444H23.0884V41.384H29.7504V38.7371H23.0884ZM54.3651 18.9868V16.3398H42.2608V18.9868H46.787V31.1024H49.8383V18.9868H54.3651ZM35.5988 25.4521C36.565 25.4521 37.3279 25.6041 37.6838 26.0114L38.2433 31.1024H41.6506V30.746C41.2946 30.5417 41.0912 29.6262 41.0912 27.8948C41.0912 25.8085 40.3283 24.6879 39.2095 24.128C40.7352 23.5171 41.498 22.3973 41.498 20.5139C41.498 17.8669 39.9723 16.3398 36.7685 16.3398H29.3436V31.1024H32.3949V25.4521H35.5988ZM32.3949 22.9572V18.9868H36.1582C37.6839 18.9868 38.4467 19.5467 38.4467 20.8702C38.4467 22.1937 37.6838 22.9572 36.0056 22.9572H32.3949ZM37.6838 32.6295H34.0731L28.7842 47.6444H31.988L33.1577 44.3873H38.6501L39.5655 47.6444H42.8202L37.6838 32.6295ZM35.8022 36.0385L37.6838 41.9447H33.9206L35.8022 36.0385ZM52.4835 37.5656H55.4839C55.3307 36.2429 54.9238 35.123 54.0077 34.1551C52.6862 33.0353 51.1605 32.2717 49.0755 32.2717C46.9904 32.2717 45.4647 33.0353 44.1425 34.3594C43.0237 35.6822 42.2608 37.5656 42.2608 40.0606C42.2608 45.3545 44.4985 48 48.872 48C52.6862 48 54.7706 46.1166 55.4839 42.5032H52.4835C52.0766 44.2332 50.7537 45.1501 49.0755 45.1501C46.5835 45.1501 45.4647 43.4711 45.4647 40.2126C45.4647 36.6501 46.5835 34.9187 49.0755 34.9187C50.7537 34.9187 51.7206 35.8865 52.4835 37.5656ZM14.7481 47.4415H14.7989H14.7481ZM14.7989 47.4415C15.3075 47.4415 15.7143 47.2372 16.0202 46.9834C16.2744 46.6779 16.4771 46.2707 16.4771 45.7115C16.4771 45.1 16.2737 44.6927 16.0202 44.4382C15.715 44.1844 15.3082 44.031 14.7989 44.031H14.7481C14.1378 44.031 13.731 44.1844 13.4767 44.4382C13.2231 44.692 13.0698 45.1 13.0698 45.7115V45.761C13.0698 46.2707 13.2224 46.6779 13.4767 46.9834C13.731 47.2372 14.1385 47.4415 14.7481 47.4415H14.7989ZM14.7481 47.8487C14.0361 47.8487 13.5275 47.5949 13.1715 47.2372C12.8156 46.8808 12.663 46.3725 12.663 45.761V45.7115C12.663 44.9974 12.8156 44.4891 13.1715 44.1335C13.5275 43.7772 14.0361 43.6238 14.7481 43.6238H14.7989C15.4092 43.6238 15.9177 43.7772 16.2737 44.1335C16.6297 44.4898 16.884 44.9981 16.884 45.7115C16.884 46.3732 16.6297 46.8808 16.2737 47.2372C16.0808 47.432 15.851 47.5865 15.5978 47.6915C15.3446 47.7965 15.073 47.8499 14.7989 47.8487H14.7481ZM14.9515 45.5072H15.0023C15.2058 45.5072 15.3075 45.4047 15.3075 45.1509V45.1C15.3075 45.1 15.2566 45.1 15.2566 45.049C15.2058 44.9981 15.1041 44.9981 14.9515 44.9981H14.3921V45.5079H14.9515V45.5072ZM15.3075 45.8635L15.7143 46.3732C15.7652 46.4743 15.7143 46.5761 15.6635 46.627C15.5618 46.7296 15.4092 46.6779 15.3583 46.627L14.8498 45.9144H14.3921V46.4736C14.3921 46.5761 14.2904 46.6779 14.1887 46.6779C14.0869 46.6779 13.9852 46.5754 13.9852 46.4736V44.7945C13.9852 44.692 14.0869 44.5916 14.1887 44.5916H15.0023C15.2058 44.5916 15.4092 44.6411 15.5109 44.7436C15.5618 44.7945 15.6126 44.7945 15.6126 44.8461C15.7143 44.9487 15.7143 45.049 15.7143 45.1516C15.7143 45.5581 15.6126 45.761 15.3075 45.8635ZM69.5193 0C78.9791 0 87.1662 3.46139 93.7774 10.0788C100.592 16.8998 104 25.0442 104 34.5624V47.6444H90.1673V34.1551C90.1673 28.8626 88.2857 24.2807 84.4715 20.5139C83.5554 19.5467 82.5899 18.7832 81.4711 18.0196C78.4197 15.9326 74.809 15.0163 71.0457 15.0163H69.52V0H69.5193ZM88.8437 47.6444H78.0623V37.2093C78.0623 35.4793 77.5036 34.1551 76.334 33.0353C75.2151 31.8659 73.6895 31.3053 72.1638 31.3053H69.5193V16.3398H71.045C75.011 16.3398 78.4183 17.4597 81.4703 19.7503C82.2332 20.1066 82.996 20.8702 83.5547 21.4301C87.1662 25.0449 88.8437 29.219 88.8437 34.1558V47.6444ZM76.7408 47.6444H69.5186V32.6295H72.1638C73.3335 32.6295 74.4523 33.0353 75.4178 33.9522C76.1807 34.7158 76.7408 35.8865 76.7408 37.2093V47.6444Z" fill="#6B6D71"/>
</svg>
