<svg width="96" height="46" viewBox="0 0 96 46" fill="none" xmlns="http://www.w3.org/2000/svg">
<rect x="0.730469" y="0.554688" width="94.5376" height="44.7366" rx="6" fill="#EFF1F5"/>
<g clip-path="url(#clip0)">
<path d="M40.7608 17.1865H36.7103C36.4331 17.1865 36.1974 17.3866 36.1542 17.6584L34.516 27.9761C34.4834 28.1797 34.6421 28.3632 34.85 28.3632H36.7837C37.0609 28.3632 37.2966 28.1632 37.3399 27.8908L37.7817 25.108C37.8243 24.8355 38.0607 24.6355 38.3372 24.6355H39.6195C42.2876 24.6355 43.8275 23.3529 44.2296 20.8113C44.4109 19.6993 44.2373 18.8256 43.7132 18.2138C43.1375 17.5419 42.1164 17.1865 40.7608 17.1865ZM41.2281 20.9549C41.0066 22.3986 39.8961 22.3986 38.8223 22.3986H38.2111L38.6399 19.7023C38.6653 19.5393 38.8075 19.4193 38.9733 19.4193H39.2535C39.9849 19.4193 40.6749 19.4193 41.0314 19.8335C41.2441 20.0806 41.3092 20.4477 41.2281 20.9549Z" fill="#2D3F54"/>
<path d="M52.8675 20.9078H50.9278C50.7626 20.9078 50.6198 21.0278 50.5944 21.1908L50.5085 21.7297L50.3729 21.5344C49.953 20.929 49.0166 20.7266 48.082 20.7266C45.9386 20.7266 44.1079 22.3392 43.7514 24.6014C43.566 25.7298 43.8296 26.8088 44.4739 27.5613C45.065 28.2532 45.9108 28.5415 46.917 28.5415C48.6441 28.5415 49.6017 27.4384 49.6017 27.4384L49.5153 27.9738C49.4827 28.1785 49.6414 28.3621 49.8481 28.3621H51.5953C51.8731 28.3621 52.1076 28.162 52.1514 27.8896L53.1997 21.2949C53.2329 21.0919 53.0748 20.9078 52.8675 20.9078ZM50.1638 24.6579C49.9766 25.7586 49.0971 26.4976 47.9754 26.4976C47.4122 26.4976 46.962 26.3182 46.673 25.9781C46.3864 25.6404 46.2774 25.1597 46.3686 24.6243C46.5433 23.533 47.4376 22.7699 48.5422 22.7699C49.093 22.7699 49.5407 22.9517 49.8357 23.2947C50.1312 23.6412 50.2485 24.1248 50.1638 24.6579Z" fill="#2D3F54"/>
<path d="M63.1972 20.9082H61.2481C61.0621 20.9082 60.8874 21 60.782 21.1535L58.0937 25.0872L56.9542 21.3071C56.8826 21.0706 56.6628 20.9082 56.4141 20.9082H54.4987C54.2659 20.9082 54.1043 21.1341 54.1783 21.3518L56.3252 27.6106L54.3068 30.4411C54.1481 30.6641 54.308 30.9706 54.5822 30.9706H56.529C56.7138 30.9706 56.8867 30.8812 56.9915 30.7306L63.4744 21.4348C63.6296 21.2124 63.4703 20.9082 63.1972 20.9082Z" fill="#2D3F54"/>
<path d="M69.6495 17.1865H65.5984C65.3218 17.1865 65.0861 17.3866 65.0428 17.6584L63.4046 27.9761C63.3721 28.1797 63.5308 28.3632 63.7375 28.3632H65.8163C66.0094 28.3632 66.1747 28.2232 66.2049 28.0326L66.6698 25.108C66.7124 24.8355 66.9487 24.6355 67.2253 24.6355H68.507C71.1757 24.6355 72.715 23.3529 73.1177 20.8113C73.2996 19.6993 73.1248 18.8256 72.6007 18.2138C72.0256 17.5419 71.0051 17.1865 69.6495 17.1865ZM70.1167 20.9549C69.8958 22.3986 68.7853 22.3986 67.711 22.3986H67.1004L67.5297 19.7023C67.5552 19.5393 67.6962 19.4193 67.8626 19.4193H68.1427C68.8736 19.4193 69.5642 19.4193 69.9207 19.8335C70.1333 20.0806 70.1979 20.4477 70.1167 20.9549Z" fill="#6B7D92"/>
<path d="M81.7556 20.9078H79.8171C79.6507 20.9078 79.5091 21.0278 79.4842 21.1908L79.3984 21.7297L79.2621 21.5344C78.8422 20.929 77.9065 20.7266 76.9719 20.7266C74.8285 20.7266 72.9984 22.3392 72.6418 24.6014C72.4571 25.7298 72.7194 26.8088 73.3638 27.5613C73.9561 28.2532 74.8006 28.5415 75.8069 28.5415C77.5339 28.5415 78.4916 27.4384 78.4916 27.4384L78.4051 27.9738C78.3726 28.1785 78.5313 28.3621 78.7392 28.3621H80.4857C80.7623 28.3621 80.9981 28.162 81.0413 27.8896L82.0902 21.2949C82.1222 21.0919 81.9634 20.9078 81.7556 20.9078ZM79.0519 24.6579C78.8659 25.7586 77.9852 26.4976 76.8635 26.4976C76.3014 26.4976 75.8501 26.3182 75.5611 25.9781C75.2744 25.6404 75.1667 25.1597 75.2567 24.6243C75.4326 23.533 76.3257 22.7699 77.4303 22.7699C77.9811 22.7699 78.4288 22.9517 78.7238 23.2947C79.0205 23.6412 79.1378 24.1248 79.0519 24.6579Z" fill="#6B7D92"/>
<path d="M84.0417 17.4691L82.3793 27.9757C82.3467 28.1793 82.5054 28.3629 82.7121 28.3629H84.3835C84.6612 28.3629 84.8969 28.1628 84.9396 27.8904L86.579 17.5733C86.6115 17.3697 86.4528 17.1855 86.2461 17.1855H84.3746C84.2093 17.1861 84.0672 17.3062 84.0417 17.4691Z" fill="#6B7D92"/>
<path d="M17.6965 30.3684L18.0062 28.4139L17.3162 28.398H14.0215L16.3112 13.976C16.3183 13.9325 16.3414 13.8919 16.3751 13.8631C16.4089 13.8342 16.4521 13.8184 16.4971 13.8184H22.0525C23.8968 13.8184 25.1696 14.1996 25.8341 14.9521C26.1457 15.3051 26.3441 15.674 26.44 16.0799C26.5407 16.5059 26.5425 17.0148 26.4442 17.6355L26.4371 17.6808V18.0785L26.7486 18.2539C27.011 18.3921 27.2194 18.5504 27.3793 18.7316C27.6459 19.0334 27.8182 19.417 27.8911 19.8718C27.9663 20.3395 27.9414 20.8961 27.8182 21.5262C27.6761 22.2511 27.4463 22.8823 27.1359 23.3989C26.8505 23.8749 26.4868 24.2697 26.055 24.5756C25.6428 24.8662 25.153 25.0869 24.5993 25.2281C24.0627 25.3669 23.4509 25.4369 22.7798 25.4369H22.3475C22.0383 25.4369 21.7381 25.5475 21.5023 25.7458C21.266 25.9482 21.1097 26.2247 21.0617 26.5271L21.0291 26.703L20.4819 30.1478L20.457 30.2743C20.4505 30.3143 20.4392 30.3343 20.4226 30.3478C20.4078 30.3602 20.3865 30.3684 20.3658 30.3684H17.6965Z" fill="#253B80"/>
<path d="M27.042 17.7266C27.0254 17.8319 27.0064 17.9395 26.9851 18.0502C26.2525 21.7867 23.746 23.0775 20.5449 23.0775H18.915C18.5235 23.0775 18.1936 23.3599 18.1326 23.7435L17.2981 29.0009L17.0618 30.4912C17.0221 30.743 17.2175 30.9701 17.4734 30.9701H20.3642C20.7065 30.9701 20.9973 30.723 21.0512 30.3877L21.0797 30.2418L21.624 26.8106L21.6589 26.6223C21.7122 26.2858 22.0036 26.0387 22.3459 26.0387H22.7783C25.5791 26.0387 27.7716 24.909 28.4125 21.6402C28.6802 20.2747 28.5416 19.1345 27.8332 18.3326C27.6188 18.0907 27.3529 17.8901 27.042 17.7266Z" fill="#6B7D92"/>
<path d="M26.2778 17.4233C26.1658 17.391 26.0503 17.3616 25.9319 17.3351C25.8128 17.3092 25.6908 17.2862 25.5653 17.2662C25.1258 17.1956 24.6443 17.1621 24.1284 17.1621H19.7741C19.6669 17.1621 19.5651 17.1862 19.4739 17.2298C19.2731 17.3257 19.1238 17.5145 19.0877 17.7457L18.1614 23.5739L18.1348 23.7439C18.1958 23.3603 18.5257 23.0779 18.9171 23.0779H20.547C23.7482 23.0779 26.2547 21.7865 26.9873 18.0505C27.0092 17.9399 27.0276 17.8322 27.0442 17.7269C26.8588 17.6293 26.658 17.5457 26.4418 17.4745C26.3885 17.4569 26.3334 17.4398 26.2778 17.4233Z" fill="#213348"/>
<path d="M19.0866 17.7455C19.1227 17.5142 19.2719 17.3254 19.4727 17.2301C19.5645 17.1865 19.6658 17.1624 19.773 17.1624H24.1273C24.6432 17.1624 25.1247 17.196 25.5641 17.2666C25.6897 17.2866 25.8117 17.3095 25.9307 17.3354C26.0492 17.3619 26.1647 17.3913 26.2766 17.4236C26.3323 17.4401 26.3874 17.4572 26.4413 17.4742C26.6574 17.5454 26.8582 17.6296 27.0436 17.7266C27.2615 16.3458 27.0418 15.4056 26.2902 14.5543C25.4617 13.6171 23.9662 13.2158 22.0526 13.2158H16.4972C16.1063 13.2158 15.7729 13.4982 15.7125 13.8824L13.3985 28.4527C13.3529 28.741 13.5768 29.001 13.8693 29.001H17.2991L18.1603 23.5736L19.0866 17.7455Z" fill="#2D3F54"/>
</g>
<defs>
<clipPath id="clip0">
<rect width="73.4355" height="19.414" fill="white" transform="translate(13.3926 13.2158)"/>
</clipPath>
</defs>
</svg>
