<svg width="95" height="46" viewBox="0 0 95 46" fill="none" xmlns="http://www.w3.org/2000/svg">
<rect y="0.554688" width="94.5376" height="44.7366" rx="6" fill="#EFF1F5"/>
<g clip-path="url(#clip0)">
<path d="M41.8683 31.5311H37.3555L40.1781 14.3721H44.6908L41.8683 31.5311Z" fill="#36485D"/>
<path d="M58.2268 14.7911C57.3367 14.4439 55.9249 14.0605 54.1792 14.0605C49.7225 14.0605 46.5842 16.397 46.565 19.7374C46.528 22.2019 48.8119 23.5708 50.5201 24.3925C52.2661 25.2322 52.8596 25.7803 52.8596 26.5288C52.8418 27.6783 51.4488 28.2082 50.1495 28.2082C48.3477 28.2082 47.3823 27.935 45.9152 27.2955L45.321 27.0213L44.6895 30.8731C45.7479 31.3472 47.698 31.7679 49.7225 31.7864C54.4578 31.7864 57.5405 29.4861 57.5771 25.9264C57.5951 23.973 56.3891 22.4763 53.789 21.2533C52.2106 20.4681 51.2439 19.9387 51.2439 19.1354C51.2625 18.4051 52.0615 17.6571 53.8433 17.6571C55.3104 17.6205 56.3883 17.9672 57.2049 18.3142L57.6131 18.4964L58.2268 14.7911Z" fill="#36485D"/>
<path d="M64.2243 25.4523C64.596 24.4665 66.0261 20.6513 66.0261 20.6513C66.0073 20.688 66.397 19.6474 66.6198 19.0085L66.9352 20.4871C66.9352 20.4871 67.7898 24.5944 67.9754 25.4523C67.2701 25.4523 65.1157 25.4523 64.2243 25.4523ZM69.7949 14.3721H66.3042C65.2277 14.3721 64.4099 14.6821 63.9455 15.7958L57.2422 31.5309H61.9774C61.9774 31.5309 62.757 29.413 62.9245 28.9569C63.444 28.9569 68.0504 28.9569 68.7187 28.9569C68.8483 29.5594 69.2572 31.5309 69.2572 31.5309H73.4357L69.7949 14.3721Z" fill="#36485D"/>
<path d="M33.5853 14.3721L29.1657 26.0729L28.6827 23.6998C27.8656 20.9616 25.3031 17.9866 22.4434 16.5074L26.4915 31.5129H31.2638L38.3572 14.3721H33.5853Z" fill="#36485D"/>
<path d="M25.0621 14.3721H17.8008L17.7266 14.7188C23.3908 16.1428 27.1421 19.5754 28.6834 23.7012L27.1048 15.8145C26.845 14.7186 26.0463 14.4082 25.0621 14.3721Z" fill="#A1B3C8"/>
</g>
<defs>
<clipPath id="clip0">
<rect width="55.7097" height="17.7258" fill="white" transform="translate(17.7266 14.0605)"/>
</clipPath>
</defs>
</svg>
